M48
; DRILL file {KiCad (5.1.5)-3} date 6/2/2020 12:40:58
; FORMAT={-:-/ absolute / inch / decimal}
; #@! TF.CreationDate,2020-06-02T12:40:58-05:00
; #@! TF.GenerationSoftware,Kicad,Pcbnew,(5.1.5)-3
; #@! TF.FileFunction,Plated,1,2,PTH
FMAT,2
INCH
T1C0.0157
T2C0.0217
T3C0.0335
T4C0.0394
T5C0.0579
T6C0.0630
%
G90
G05
T1
X2.5306Y-6.4398
X2.8436Y-4.7524
X3.0762Y-3.3775
X3.1475Y-3.325
X3.1735Y-3.196
X3.2062Y-3.5875
X3.3Y-4.885
X3.3475Y-3.325
X3.39Y-5.77
X3.3914Y-7.0323
X3.405Y-3.565
X3.6248Y-4.3435
X3.7805Y-4.7524
X3.843Y-5.5024
X3.9334Y-6.5004
X4.6125Y-5.5315
X4.7Y-6.5292
X4.7269Y-6.5004
X5.1596Y-7.007
X5.3576Y-6.2809
X5.3625Y-5.531
X5.3862Y-6.4825
X5.4375Y-6.685
X5.4684Y-3.9373
X5.5009Y-6.5134
X5.5275Y-6.69
X5.5309Y-5.6871
X5.5805Y-5.8125
X5.59Y-6.815
X5.6083Y-5.8403
X5.6155Y-7.0712
X5.6361Y-5.8682
X5.6525Y-6.92
X5.6539Y-6.2829
X5.664Y-5.896
X5.67Y-6.155
X5.6825Y-6.44
X5.7013Y-5.531
X5.7406Y-5.531
X5.78Y-5.53
X5.8851Y-6.3935
X5.9025Y-6.1899
X5.925Y-5.62
X5.929Y-6.1588
X6.06Y-7.02
X6.07Y-5.531
X6.11Y-5.895
X6.1475Y-6.1899
X6.1725Y-6.395
X6.2119Y-6.395
X6.2512Y-6.3975
X6.2553Y-7.0097
X6.2612Y-6.3011
X6.3735Y-6.5023
X6.4075Y-6.9802
X6.42Y-6.74
X6.4364Y-6.495
X6.4575Y-6.355
X6.4625Y-6.9802
X6.4925Y-6.565
X6.5075Y-6.9802
X6.5496Y-6.9623
X6.5775Y-6.56
X6.5799Y-6.9336
X6.59Y-6.305
X6.6194Y-6.3556
X6.6983Y-7.0333
X6.7448Y-7.0121
X6.7925Y-6.9896
X6.8373Y-6.9702
X6.9683Y-6.3434
X7.2368Y-6.2809
X7.96Y-6.2809
X8.22Y-6.29
X8.7182Y-6.2809
X9.215Y-6.295
X9.47Y-6.2809
X9.9681Y-6.3121
X10.19Y-6.2809
X10.7181Y-6.3121
X10.955Y-6.2809
X11.0931Y-6.3121
X11.468Y-6.3121
X11.9992Y-6.2809
X12.4992Y-6.3121
X13.0304Y-6.2809
X13.7804Y-6.2809
T4
X6.655Y-5.1615
X6.655Y-5.4685
X12.78Y-6.6615
X12.78Y-6.9685
X7.53Y-3.6615
X7.53Y-3.9685
X8.655Y-2.9115
X8.655Y-3.2185
X6.78Y-3.6615
X6.78Y-3.9685
X5.28Y-3.6615
X5.28Y-3.9685
X4.905Y-2.9115
X4.905Y-3.2185
X13.58Y-6.6615
X13.58Y-6.9685
X4.155Y-3.0052
X4.155Y-3.3123
X9.2175Y-5.9115
X9.2175Y-6.2185
X13.53Y-4.4115
X13.53Y-4.7185
X4.9988Y-6.6615
X4.9988Y-6.9685
X2.4362Y-6.6615
X2.4362Y-6.9685
X11.0925Y-5.1615
X11.0925Y-5.4685
X5.655Y-4.4115
X5.655Y-4.7185
X8.28Y-3.6615
X8.28Y-3.9685
X10.905Y-2.9115
X10.905Y-3.2185
X12.03Y-3.6615
X12.03Y-3.9685
X7.905Y-2.9115
X7.905Y-3.2185
X5.655Y-2.9115
X5.655Y-3.2185
X10.7175Y-5.9115
X10.7175Y-6.2185
X13.3425Y-4.4115
X13.3425Y-4.7185
X13.0612Y-5.1615
X13.0612Y-5.4685
X13.53Y-5.1615
X13.53Y-5.4685
X8.8425Y-5.1615
X8.8425Y-5.4685
X5.2375Y-6.91
X5.2375Y-7.01
X5.3375Y-6.92
X5.3375Y-7.02
X5.4375Y-6.91
X5.4375Y-7.01
X13.155Y-3.6615
X13.155Y-3.9685
X10.53Y-3.6615
X10.53Y-3.9685
X11.655Y-2.9115
X11.655Y-3.2185
X13.53Y-3.6615
X13.53Y-3.9685
X9.405Y-2.9115
X9.405Y-3.2185
X6.9675Y-5.9115
X6.9675Y-6.2185
X10.3425Y-5.1615
X10.3425Y-5.4685
X3.9674Y-5.9114
X3.9674Y-6.2185
X9.9675Y-5.9115
X9.9675Y-6.2185
X2.4644Y-5.1615
X2.4644Y-5.4685
X13.48Y-6.6615
X13.48Y-6.9685
X2.4681Y-5.9113
X2.4681Y-6.2184
X10.155Y-4.4115
X10.155Y-4.7185
X3.2514Y-4.982
X3.2514Y-5.238
X3.4286Y-4.982
X3.4286Y-5.238
X2.4987Y-4.4115
X2.4987Y-4.7185
X11.28Y-3.6615
X11.28Y-3.9685
X13.3425Y-2.9115
X13.3425Y-3.2185
X9.03Y-3.6615
X9.03Y-3.9685
X10.155Y-2.9115
X10.155Y-3.2185
X10.53Y-6.6615
X10.53Y-6.9685
X11.4675Y-5.9115
X11.4675Y-6.2185
X4.3425Y-5.1615
X4.3425Y-5.4685
X12.4987Y-5.9115
X12.4987Y-6.2185
X5.0925Y-5.1615
X5.0925Y-5.4685
X4.7175Y-5.9115
X4.7175Y-6.2185
X11.5925Y-4.4115
X11.5925Y-4.7185
X6.405Y-4.4115
X6.405Y-4.7185
X4.155Y-4.4115
X4.155Y-4.7185
X6.03Y-3.6615
X6.03Y-3.9685
X9.78Y-3.6615
X9.78Y-3.9685
X12.405Y-2.9115
X12.405Y-3.2185
X7.8113Y-6.6615
X7.8113Y-6.9685
X2.4987Y-2.9115
X2.4987Y-3.2185
X7.7175Y-5.9115
X7.7175Y-6.2185
X8.0925Y-5.1615
X8.0925Y-5.4685
X4.0613Y-6.6615
X4.0613Y-6.9685
X6.53Y-5.1615
X6.53Y-5.4685
X5.4675Y-5.9115
X5.4675Y-6.2185
X11.7175Y-4.4115
X11.7175Y-4.7185
X7.905Y-4.4115
X7.905Y-4.7185
X7.155Y-2.9115
X7.155Y-3.2185
X8.655Y-4.4115
X8.655Y-4.7185
X6.405Y-2.9115
X6.405Y-3.2185
X3.03Y-3.6615
X3.03Y-3.9685
X11.28Y-6.6615
X11.28Y-6.9685
X8.4675Y-5.9115
X8.4675Y-6.2185
X9.405Y-4.4115
X9.405Y-4.7185
X11.905Y-5.1614
X11.905Y-5.4685
X12.78Y-5.9115
X12.78Y-6.2185
X5.8425Y-5.1615
X5.8425Y-5.4685
X6.2175Y-5.9115
X6.2175Y-6.2185
X9.5925Y-5.1615
X9.5925Y-5.4685
X7.155Y-4.4115
X7.155Y-4.7185
X3.78Y-3.6615
X3.78Y-3.9685
X4.905Y-4.4115
X4.905Y-4.7185
X4.53Y-3.6615
X4.53Y-3.9685
X13.155Y-2.9115
X13.155Y-3.2185
X12.03Y-6.6615
X12.03Y-6.9685
X13.53Y-5.9115
X13.53Y-6.2185
X10.905Y-4.4115
X10.905Y-4.7185
X11.78Y-5.1614
X11.78Y-5.4685
T5
X4.5675Y-5.215
X4.8175Y-5.115
X9.8175Y-5.215
X10.0675Y-5.115
X11.13Y-4.465
X11.38Y-4.365
X7.5675Y-5.215
X7.8175Y-5.115
X13.005Y-5.965
X13.255Y-5.865
X12.255Y-6.715
X12.505Y-6.615
X12.8174Y-4.4649
X13.0674Y-4.3649
X10.755Y-6.715
X11.005Y-6.615
X11.88Y-2.965
X12.13Y-2.865
X8.88Y-2.965
X9.13Y-2.865
X12.0676Y-5.215
X12.3176Y-5.115
X7.1925Y-5.965
X7.4425Y-5.865
X8.505Y-3.715
X8.755Y-3.615
X13.755Y-3.715
X14.005Y-3.615
X13.755Y-5.215
X14.005Y-5.115
X3.8175Y-5.215
X4.0675Y-5.115
X8.3175Y-5.215
X8.5675Y-5.115
X2.5987Y-6.715
X2.8487Y-6.615
X13.755Y-6.715
X14.005Y-6.615
X7.755Y-3.715
X8.005Y-3.615
X11.13Y-2.965
X11.38Y-2.865
X10.38Y-4.465
X10.63Y-4.365
X12.5362Y-5.2149
X12.7862Y-5.1149
X12.9112Y-4.8399
X13.1612Y-4.7399
X10.1925Y-5.965
X10.4425Y-5.865
X4.005Y-3.715
X4.255Y-3.615
X9.63Y-4.465
X9.88Y-4.365
X4.9425Y-5.965
X5.1925Y-5.865
X4.38Y-4.465
X4.63Y-4.365
X3.5362Y-6.715
X3.7862Y-6.615
X3.63Y-2.965
X3.88Y-2.865
X4.4737Y-6.715
X4.7237Y-6.615
X13.755Y-5.965
X14.005Y-5.865
X6.63Y-2.965
X6.88Y-2.865
X4.38Y-2.965
X4.63Y-2.865
X3.255Y-3.715
X3.505Y-3.615
X9.255Y-3.715
X9.505Y-3.615
X6.8175Y-5.215
X7.0675Y-5.115
X11.9737Y-5.965
X12.2237Y-5.865
X5.3175Y-5.215
X5.5675Y-5.115
X7.9425Y-5.965
X8.1925Y-5.865
X2.6925Y-4.465
X2.9425Y-4.365
X7.2875Y-6.715
X7.5375Y-6.615
X12.6299Y-3.715
X12.8799Y-3.615
X10.005Y-6.715
X10.255Y-6.615
X2.505Y-3.715
X2.755Y-3.615
X8.13Y-2.965
X8.38Y-2.865
X5.13Y-2.965
X5.38Y-2.865
X6.255Y-3.715
X6.505Y-3.615
X13.5675Y-2.965
X13.8175Y-2.865
X3.63Y-4.465
X3.88Y-4.365
X4.1925Y-5.965
X4.4425Y-5.865
X6.0675Y-5.215
X6.3175Y-5.115
X5.6925Y-5.965
X5.9425Y-5.865
X13.755Y-4.465
X14.005Y-4.365
X11.505Y-6.715
X11.755Y-6.615
X13.005Y-6.715
X13.255Y-6.615
X2.5987Y-5.9644
X2.8487Y-5.8644
X2.974Y-5.9644
X3.224Y-5.8644
X11.505Y-3.715
X11.755Y-3.615
X12.63Y-2.965
X12.88Y-2.865
X7.005Y-3.715
X7.255Y-3.615
X10.5675Y-5.215
X10.8175Y-5.115
X4.755Y-3.715
X5.005Y-3.615
X6.63Y-4.465
X6.88Y-4.365
X9.0675Y-5.215
X9.3175Y-5.115
X5.13Y-4.465
X5.38Y-4.365
X8.6925Y-5.965
X8.9425Y-5.865
X8.13Y-4.465
X8.38Y-4.365
X5.88Y-4.465
X6.13Y-4.365
X3.4433Y-5.965
X3.6933Y-5.865
X7.38Y-2.965
X7.63Y-2.865
X10.005Y-3.715
X10.255Y-3.615
X6.4425Y-5.965
X6.6925Y-5.865
X10.755Y-3.715
X11.005Y-3.615
X11.88Y-4.465
X12.13Y-4.365
X2.5987Y-5.215
X2.7862Y-5.215
X2.8487Y-5.115
X3.0362Y-5.115
X9.4425Y-5.965
X9.6925Y-5.865
X8.88Y-4.465
X9.13Y-4.365
X10.9425Y-5.965
X11.1925Y-5.865
X7.38Y-4.465
X7.63Y-4.365
X5.88Y-2.965
X6.13Y-2.865
X2.6925Y-2.965
X2.9425Y-2.865
X9.63Y-2.965
X9.88Y-2.865
X10.38Y-2.965
X10.63Y-2.865
X11.3175Y-5.215
X11.5675Y-5.115
X5.505Y-3.715
X5.755Y-3.615
T6
X2.6987Y-5.515
X2.7988Y-5.515
X2.8862Y-5.515
X2.9863Y-5.515
T2
G00X3.1469Y-2.7929
M15
G01X3.1469Y-2.8185
M16
G05
G00X3.452Y-2.7929
M15
G01X3.452Y-2.8185
M16
G05
T3
G00X3.1528Y-2.9445
M15
G01X3.1528Y-2.9662
M16
G05
G00X3.4461Y-2.9445
M15
G01X3.4461Y-2.9662
M16
G05
T0
M30
