M48
; DRILL file {KiCad 9.0.8-9.0.8~ubuntu24.04.1} date 2026-03-25T11:31:34-0500
; FORMAT={-:-/ absolute / metric / decimal}
; #@! TF.CreationDate,2026-03-25T11:31:34-05:00
; #@! TF.GenerationSoftware,Kicad,Pcbnew,9.0.8-9.0.8~ubuntu24.04.1
; #@! TF.FileFunction,Plated,1,2,PTH
FMAT,2
METRIC
; #@! TA.AperFunction,Plated,PTH,ViaDrill
T1C0.400
; #@! TA.AperFunction,Plated,PTH,ComponentDrill
T2C0.800
; #@! TA.AperFunction,Plated,PTH,ComponentDrill
T3C1.000
; #@! TA.AperFunction,Plated,PTH,ComponentDrill
T4C1.092
; #@! TA.AperFunction,Plated,PTH,ComponentDrill
T5C1.470
; #@! TA.AperFunction,Plated,PTH,ComponentDrill
T6C1.600
; #@! TA.AperFunction,Plated,PTH,ComponentDrill
T7C2.200
%
G90
G05
T1
X66.406Y-137.382
X69.596Y-177.797
X72.231Y-137.319
X78.613Y-84.252
X79.375Y-91.189
X84.517Y-84.726
X87.376Y-179.324
X88.226Y-138.965
X88.873Y-100.136
X90.831Y-100.146
X94.456Y-152.876
X94.462Y-158.012
X100.352Y-121.104
X101.737Y-119.72
X104.013Y-160.401
X106.907Y-138.236
X108.865Y-138.236
X109.283Y-129.921
X116.741Y-142.457
X134.144Y-102.394
X137.16Y-157.288
X141.744Y-147.637
X141.986Y-83.058
X142.451Y-148.344
X142.635Y-178.68
X142.645Y-158.691
X142.748Y-155.702
X142.812Y-173.226
X143.158Y-149.052
X143.637Y-120.905
X143.764Y-176.022
X143.865Y-149.759
X147.823Y-159.611
X148.399Y-145.225
X148.851Y-158.583
X149.812Y-166.048
X152.062Y-140.976
X153.25Y-164.572
X153.924Y-177.126
X156.586Y-157.104
X156.781Y-161.505
X157.197Y-158.833
X157.782Y-161.505
X158.782Y-161.569
X158.885Y-177.119
X159.25Y-162.572
X160.312Y-159.548
X161.29Y-158.242
X162.137Y-165.527
X162.751Y-176.37
X162.941Y-163.631
X163.449Y-158.115
X164.148Y-176.37
X164.211Y-161.505
X164.592Y-171.665
X164.909Y-165.823
X165.291Y-176.37
X166.359Y-175.913
X167.069Y-165.696
X167.129Y-175.186
X168.529Y-171.665
X172.562Y-177.798
X174.117Y-177.271
X197.562Y-177.726
X198.576Y-177.74
X199.59Y-177.754
X224.312Y-161.476
X240.562Y-158.016
X244.267Y-168.021
X260.014Y-158.016
X279.064Y-158.016
X305.308Y-158.016
X327.437Y-168.101
X330.312Y-158.003
T3
X82.586Y-126.544
X82.586Y-133.044
X87.086Y-126.544
X87.086Y-133.044
X131.062Y-172.146
X131.062Y-177.226
X131.316Y-174.686
X133.602Y-172.146
X133.602Y-177.226
X133.856Y-174.686
T4
X105.537Y-72.985
T5
X63.627Y-94.361
X66.008Y-132.461
X66.008Y-170.561
X66.015Y-151.496
X68.389Y-75.311
X68.389Y-113.411
X69.977Y-91.821
X70.771Y-132.461
X72.358Y-129.921
X72.358Y-168.021
X72.365Y-148.956
X74.739Y-72.771
X74.739Y-110.871
X75.54Y-151.496
X77.121Y-129.921
X81.89Y-148.956
X82.677Y-94.361
X87.46Y-151.51
X89.027Y-91.821
X89.821Y-170.561
X92.202Y-75.311
X92.202Y-113.411
X93.81Y-148.97
X96.171Y-168.021
X96.965Y-132.461
X98.552Y-72.771
X98.552Y-110.871
X101.727Y-94.361
X103.314Y-129.921
X106.489Y-151.511
X108.077Y-91.821
X111.252Y-75.311
X111.252Y-113.411
X112.84Y-148.971
X113.633Y-170.561
X116.014Y-132.461
X117.602Y-72.771
X117.602Y-110.871
X119.983Y-168.021
X120.777Y-94.361
X122.364Y-129.921
X125.539Y-151.511
X127.127Y-91.821
X130.302Y-75.311
X130.302Y-113.411
X131.889Y-148.971
X135.064Y-132.461
X136.652Y-72.771
X136.652Y-110.871
X139.827Y-94.361
X141.415Y-129.921
X144.589Y-151.511
X146.177Y-91.821
X149.352Y-75.311
X149.352Y-113.411
X150.939Y-148.971
X154.114Y-132.461
X155.702Y-72.771
X155.702Y-110.871
X158.877Y-94.361
X160.464Y-129.921
X163.639Y-151.511
X165.227Y-91.821
X168.402Y-75.311
X168.402Y-113.411
X169.989Y-148.971
X173.165Y-132.461
X174.752Y-72.771
X174.752Y-110.871
X177.927Y-94.361
X179.514Y-129.921
X182.689Y-151.511
X184.277Y-91.821
X185.102Y-170.561
X187.452Y-75.311
X187.452Y-113.411
X189.04Y-148.971
X191.452Y-168.021
X192.214Y-132.461
X193.802Y-72.771
X193.802Y-110.871
X196.977Y-94.361
X198.564Y-129.921
X201.739Y-151.511
X203.327Y-91.821
X206.502Y-75.311
X206.502Y-113.411
X208.089Y-148.971
X211.264Y-132.461
X212.852Y-72.771
X212.852Y-110.871
X216.027Y-94.361
X217.614Y-129.921
X220.79Y-151.511
X222.377Y-91.821
X225.552Y-75.311
X225.552Y-113.411
X227.139Y-148.971
X230.314Y-132.461
X231.902Y-72.771
X231.902Y-110.871
X235.077Y-94.361
X236.664Y-129.921
X239.839Y-151.511
X241.427Y-91.821
X244.602Y-75.311
X244.602Y-113.411
X246.189Y-148.971
X249.364Y-132.461
X250.952Y-72.771
X250.952Y-110.871
X254.127Y-94.361
X254.127Y-170.561
X255.714Y-129.921
X258.889Y-151.511
X260.477Y-91.821
X260.477Y-168.021
X263.652Y-75.311
X263.652Y-113.411
X265.239Y-148.971
X268.414Y-132.461
X270.002Y-72.771
X270.002Y-110.871
X273.177Y-94.361
X273.177Y-170.561
X274.764Y-129.921
X277.94Y-151.511
X279.527Y-91.821
X279.527Y-168.021
X282.702Y-75.311
X282.702Y-113.411
X284.289Y-148.971
X287.464Y-132.461
X289.052Y-72.771
X289.052Y-110.871
X292.227Y-94.361
X292.227Y-170.561
X293.815Y-129.921
X298.577Y-91.821
X298.577Y-168.021
X301.752Y-75.311
X301.752Y-113.411
X304.133Y-151.511
X306.492Y-132.466
X308.102Y-72.771
X308.102Y-110.871
X310.483Y-148.971
X311.277Y-170.561
X312.842Y-129.926
X317.627Y-168.021
X318.402Y-132.466
X320.799Y-94.361
X320.802Y-75.311
X324.752Y-129.926
X325.502Y-113.426
X327.149Y-91.821
X327.152Y-72.771
X327.927Y-122.941
X330.327Y-151.511
X330.327Y-170.561
X331.852Y-110.886
X334.277Y-120.401
X336.677Y-148.971
X336.677Y-168.021
X344.614Y-75.311
X349.377Y-94.361
X349.377Y-113.411
X349.377Y-132.461
X349.377Y-151.511
X349.377Y-170.561
X350.964Y-72.771
X355.727Y-91.821
X355.727Y-110.871
X355.727Y-129.921
X355.727Y-148.971
X355.727Y-168.021
T6
X68.548Y-140.081
X71.088Y-140.081
X73.311Y-140.081
X75.851Y-140.081
T7
X84.106Y-118.756
X105.537Y-171.606
X321.04Y-159.131
X336.516Y-75.676
T2
G00X79.557Y-71.212
M15
G01X79.557Y-71.812
M16
G05
G00X79.557Y-75.292
M15
G01X79.557Y-76.092
M16
G05
G00X88.207Y-71.212
M15
G01X88.207Y-71.812
M16
G05
G00X88.207Y-75.292
M15
G01X88.207Y-76.092
M16
G05
M30
