M48
; DRILL file {KiCad (5.1.4)-1} date 12/10/23 8:35:21 PM
; FORMAT={-:-/ absolute / metric / decimal}
; #@! TF.CreationDate,2023-12-10T20:35:21-06:00
; #@! TF.GenerationSoftware,Kicad,Pcbnew,(5.1.4)-1
; #@! TF.FileFunction,Plated,1,2,PTH
FMAT,2
METRIC
T1C0.400
T2C0.600
T3C1.000
T4C1.470
T5C1.600
%
G90
G05
T1
X63.412Y-128.576
X72.231Y-137.319
X72.521Y-180.464
X74.562Y-160.976
X74.612Y-131.762
X76.312Y-179.476
X79.375Y-91.189
X80.75Y-141.25
X81.076Y-81.5
X84.517Y-83.726
X85.312Y-148.226
X87.086Y-140.75
X88.873Y-100.33
X89.75Y-109.75
X90.831Y-100.33
X92.75Y-99.5
X94.456Y-152.876
X94.456Y-159.658
X100.352Y-121.104
X101.737Y-119.72
X102.25Y-118.5
X102.5Y-109.5
X106.907Y-138.4
X108.865Y-138.4
X110.331Y-130.969
X111.2Y-171.2
X116.562Y-147.726
X134.144Y-102.394
X134.906Y-165.957
X136.811Y-147.923
X136.811Y-158.75
X137.026Y-160.262
X137.75Y-99.5
X139.062Y-175.476
X139.77Y-158.476
X140.485Y-144.453
X140.5Y-122.25
X141.062Y-174.976
X141.744Y-147.637
X142.451Y-148.344
X142.586Y-159.512
X142.635Y-179.607
X143.062Y-177.226
X143.158Y-149.052
X143.637Y-82.805
X143.637Y-120.905
X143.865Y-149.759
X146.05Y-157.826
X148.399Y-145.225
X148.431Y-161.925
X149.812Y-166.976
X150.495Y-142.748
X150.495Y-156.591
X152.553Y-156.591
X153.25Y-165.5
X153.924Y-178.308
X154.781Y-151.606
X156.312Y-157.476
X156.781Y-162.433
X157.197Y-159.76
X157.782Y-162.433
X158.782Y-162.496
X158.885Y-178.046
X159.25Y-163.5
X159.5Y-122.25
X160.312Y-160.476
X162.137Y-166.455
X162.751Y-177.298
X162.941Y-164.559
X164.148Y-177.298
X164.211Y-162.433
X164.592Y-172.593
X164.764Y-158.474
X164.909Y-166.751
X165.291Y-177.298
X166.359Y-176.841
X167.069Y-166.624
X167.129Y-176.114
X168.529Y-172.593
X170.034Y-178.797
X171.037Y-178.821
X172.055Y-178.831
X173.077Y-178.837
X174.912Y-178.876
X174.912Y-180.876
X178.5Y-122.25
X180.0Y-160.5
X194.345Y-180.007
X197.5Y-122.25
X216.5Y-122.25
X234.061Y-159.893
X235.562Y-164.226
X235.75Y-122.25
X240.964Y-159.109
X242.312Y-164.226
X250.0Y-160.5
X254.75Y-122.25
X260.014Y-159.109
X272.239Y-160.327
X273.75Y-122.25
X279.064Y-161.467
X288.25Y-160.5
X292.75Y-122.25
X305.258Y-159.054
X311.75Y-122.25
X314.25Y-160.25
X331.452Y-159.172
X334.062Y-131.726
T3
X131.062Y-172.146
X131.062Y-177.226
X131.316Y-174.686
X133.602Y-172.146
X133.602Y-177.226
X133.856Y-174.686
X82.586Y-126.544
X82.586Y-133.044
X87.086Y-126.544
X87.086Y-133.044
T4
X292.227Y-94.361
X298.577Y-91.821
X273.177Y-170.561
X279.527Y-168.021
X66.015Y-151.496
X72.365Y-148.956
X75.54Y-151.496
X81.89Y-148.956
X196.977Y-94.361
X203.327Y-91.821
X220.79Y-151.511
X227.139Y-148.971
X230.314Y-132.461
X236.664Y-129.921
X66.008Y-132.461
X70.771Y-132.461
X72.358Y-129.921
X77.121Y-129.921
X135.064Y-132.461
X141.415Y-129.921
X330.327Y-151.511
X336.677Y-148.971
X249.364Y-132.461
X255.714Y-129.921
X306.492Y-132.466
X312.842Y-129.926
X130.302Y-113.411
X136.652Y-110.871
X201.739Y-151.511
X208.089Y-148.971
X225.552Y-75.311
X231.902Y-72.771
X216.027Y-94.361
X222.377Y-91.821
X173.165Y-132.461
X179.514Y-129.921
X149.352Y-113.411
X155.702Y-110.871
X163.639Y-151.511
X169.989Y-148.971
X101.727Y-94.361
X108.077Y-91.821
X292.227Y-170.561
X298.577Y-168.021
X263.652Y-113.411
X270.002Y-110.871
X344.614Y-75.311
X350.964Y-72.771
X349.377Y-151.511
X355.727Y-148.971
X282.702Y-113.411
X289.052Y-110.871
X182.689Y-151.511
X189.04Y-148.971
X268.414Y-132.461
X274.764Y-129.921
X130.302Y-75.311
X136.652Y-72.771
X168.402Y-113.411
X174.752Y-110.871
X187.452Y-113.411
X193.802Y-110.871
X325.502Y-113.426
X331.852Y-110.886
X349.377Y-132.461
X355.727Y-129.921
X254.127Y-94.361
X260.477Y-91.821
X185.102Y-170.561
X191.452Y-168.021
X125.539Y-151.511
X131.889Y-148.971
X113.633Y-170.561
X119.983Y-168.021
X301.752Y-113.411
X308.102Y-110.871
X244.602Y-113.411
X250.952Y-110.871
X277.94Y-151.511
X284.289Y-148.971
X82.677Y-94.361
X89.027Y-91.821
X225.552Y-113.411
X231.902Y-110.871
X144.589Y-151.511
X150.939Y-148.971
X311.277Y-170.561
X317.627Y-168.021
X68.389Y-75.311
X74.739Y-72.771
X111.252Y-75.311
X117.602Y-72.771
X158.877Y-94.361
X165.227Y-91.821
X304.133Y-151.511
X310.483Y-148.971
X154.114Y-132.461
X160.464Y-129.921
X63.627Y-94.361
X69.977Y-91.821
X149.352Y-75.311
X155.702Y-72.771
X206.502Y-113.411
X212.852Y-110.871
X239.839Y-151.511
X246.189Y-148.971
X106.489Y-151.511
X112.84Y-148.971
X244.602Y-75.311
X250.952Y-72.771
X92.202Y-113.411
X98.552Y-110.871
X301.752Y-75.311
X308.102Y-72.771
X87.46Y-151.51
X93.81Y-148.97
X287.464Y-132.461
X293.815Y-129.921
X320.799Y-94.361
X327.149Y-91.821
X235.077Y-94.361
X241.427Y-91.821
X349.377Y-170.561
X355.727Y-168.021
X96.965Y-132.461
X103.314Y-129.921
X89.821Y-170.561
X96.171Y-168.021
X68.389Y-113.411
X74.739Y-110.871
X318.402Y-132.466
X324.752Y-129.926
X327.927Y-122.941
X334.277Y-120.401
X177.927Y-94.361
X184.277Y-91.821
X254.127Y-170.561
X260.477Y-168.021
X282.702Y-75.311
X289.052Y-72.771
X273.177Y-94.361
X279.527Y-91.821
X349.377Y-113.411
X355.727Y-110.871
X330.327Y-170.561
X336.677Y-168.021
X139.827Y-94.361
X146.177Y-91.821
X211.264Y-132.461
X217.614Y-129.921
X258.889Y-151.511
X265.239Y-148.971
X168.402Y-75.311
X174.752Y-72.771
X116.014Y-132.461
X122.364Y-129.921
X187.452Y-75.311
X193.802Y-72.771
X66.008Y-170.561
X72.358Y-168.021
X320.802Y-75.311
X327.152Y-72.771
X111.252Y-113.411
X117.602Y-110.871
X120.777Y-94.361
X127.127Y-91.821
X263.652Y-75.311
X270.002Y-72.771
X192.214Y-132.461
X198.564Y-129.921
X206.502Y-75.311
X212.852Y-72.771
X92.202Y-75.311
X98.552Y-72.771
X349.377Y-94.361
X355.727Y-91.821
T5
X68.548Y-140.081
X71.088Y-140.081
X73.311Y-140.081
X75.851Y-140.081
T2
G00X80.307Y-70.721
M15
G01X80.307Y-71.421
M16
G05
G00X80.307Y-74.171
M15
G01X80.307Y-74.871
M16
G05
G00X87.457Y-70.721
M15
G01X87.457Y-71.421
M16
G05
G00X87.457Y-74.171
M15
G01X87.457Y-74.871
M16
G05
T0
M30
