M48
; DRILL file {KiCad 7.0.10-7.0.10~ubuntu22.04.1} date Fri 19 Jan 2024 04:19:04 PM CST
; FORMAT={-:-/ absolute / inch / decimal}
; #@! TF.CreationDate,2024-01-19T16:19:04-06:00
; #@! TF.GenerationSoftware,Kicad,Pcbnew,7.0.10-7.0.10~ubuntu22.04.1
; #@! TF.FileFunction,Plated,1,2,PTH
FMAT,2
INCH
; #@! TA.AperFunction,Plated,PTH,ViaDrill
T1C0.0157
; #@! TA.AperFunction,Plated,PTH,ComponentDrill
T2C0.0236
; #@! TA.AperFunction,Plated,PTH,ComponentDrill
T3C0.0394
; #@! TA.AperFunction,Plated,PTH,ComponentDrill
T4C0.0430
; #@! TA.AperFunction,Plated,PTH,ComponentDrill
T5C0.0579
; #@! TA.AperFunction,Plated,PTH,ComponentDrill
T6C0.0630
%
G90
G05
T1
X2.4965Y-5.062
X2.6144Y-5.4087
X2.8438Y-5.4062
X2.8552Y-7.1049
X2.9355Y-6.3376
X2.9375Y-5.1875
X3.0044Y-7.066
X3.125Y-3.5901
X3.1791Y-5.561
X3.192Y-3.2087
X3.3275Y-3.2963
X3.3587Y-5.8357
X3.4286Y-5.5413
X3.499Y-3.9424
X3.5335Y-4.3209
X3.576Y-3.9428
X3.7188Y-6.0187
X3.7188Y-6.2858
X3.9509Y-4.7679
X4.0054Y-4.7134
X4.0354Y-4.311
X4.209Y-5.4424
X4.286Y-5.4424
X4.3025Y-5.115
X4.378Y-6.7402
X4.5891Y-5.816
X5.2812Y-4.0312
X5.3113Y-6.5337
X5.3862Y-5.8237
X5.3862Y-6.25
X5.3947Y-6.3095
X5.4749Y-6.9085
X5.5028Y-6.2392
X5.5309Y-5.6871
X5.5315Y-4.813
X5.5536Y-6.8888
X5.5805Y-5.8125
X5.6083Y-5.8403
X5.6136Y-6.28
X5.6155Y-7.0712
X5.6324Y-6.9774
X5.6361Y-5.8682
X5.655Y-3.26
X5.655Y-4.76
X5.664Y-5.896
X5.75Y-6.2136
X5.8425Y-5.7175
X5.8438Y-6.375
X5.8981Y-6.5739
X5.925Y-5.62
X5.925Y-6.165
X6.006Y-6.165
X6.0335Y-6.5157
X6.06Y-7.02
X6.0938Y-5.9688
X6.154Y-6.1998
X6.1725Y-6.395
X6.1889Y-6.2898
X6.2119Y-6.395
X6.2512Y-6.3975
X6.2553Y-7.0097
X6.2697Y-6.437
X6.2795Y-4.813
X6.3115Y-6.318
X6.3833Y-6.5533
X6.4075Y-6.9802
X6.415Y-6.4787
X6.4625Y-6.9802
X6.465Y-6.395
X6.48Y-6.795
X6.4868Y-6.2391
X6.4925Y-6.565
X6.5075Y-6.9802
X6.5496Y-6.9623
X6.5775Y-6.56
X6.5799Y-6.9336
X6.635Y-6.795
X6.6942Y-7.0392
X6.7337Y-7.0402
X6.7738Y-7.0406
X6.8141Y-7.0408
X6.8863Y-7.0424
X6.8863Y-7.1211
X7.0276Y-4.813
X7.0866Y-6.3189
X7.6331Y-7.0869
X7.7756Y-4.813
X8.5236Y-4.813
X9.215Y-6.295
X9.2741Y-6.4656
X9.2815Y-4.813
X9.4868Y-6.2641
X9.5398Y-6.4656
X9.8425Y-6.3189
X10.0295Y-4.813
X10.2368Y-6.2641
X10.7181Y-6.3121
X10.7776Y-4.813
X10.9868Y-6.357
X11.3484Y-6.3189
X11.5256Y-4.813
X12.018Y-6.262
X12.2736Y-4.813
X12.372Y-6.3091
X13.0493Y-6.2666
X13.152Y-5.1861
T3
X3.2514Y-4.982
X3.2514Y-5.238
X3.4286Y-4.982
X3.4286Y-5.238
X5.1599Y-6.7774
X5.1599Y-6.9774
X5.1699Y-6.8774
X5.2599Y-6.7774
X5.2599Y-6.9774
X5.2699Y-6.8774
T4
X4.155Y-2.8734
T5
X2.505Y-3.715
X2.5987Y-5.215
X2.5987Y-6.715
X2.599Y-5.9644
X2.6925Y-2.965
X2.6925Y-4.465
X2.755Y-3.615
X2.7862Y-5.215
X2.8487Y-5.115
X2.8487Y-6.615
X2.849Y-5.8644
X2.9425Y-2.865
X2.9425Y-4.365
X2.974Y-5.9644
X3.0362Y-5.115
X3.224Y-5.8644
X3.255Y-3.715
X3.4433Y-5.965
X3.505Y-3.615
X3.5362Y-6.715
X3.63Y-2.965
X3.63Y-4.465
X3.6933Y-5.865
X3.7862Y-6.615
X3.8175Y-5.215
X3.88Y-2.865
X3.88Y-4.365
X4.005Y-3.715
X4.0675Y-5.115
X4.1925Y-5.965
X4.255Y-3.615
X4.38Y-2.965
X4.38Y-4.465
X4.4425Y-5.865
X4.4737Y-6.715
X4.5675Y-5.215
X4.63Y-2.865
X4.63Y-4.365
X4.7237Y-6.615
X4.755Y-3.715
X4.8175Y-5.115
X4.9425Y-5.965
X5.005Y-3.615
X5.13Y-2.965
X5.13Y-4.465
X5.1925Y-5.865
X5.3175Y-5.215
X5.38Y-2.865
X5.38Y-4.365
X5.505Y-3.715
X5.5675Y-5.115
X5.6925Y-5.965
X5.755Y-3.615
X5.88Y-2.965
X5.88Y-4.465
X5.9425Y-5.865
X6.0675Y-5.215
X6.13Y-2.865
X6.13Y-4.365
X6.255Y-3.715
X6.3175Y-5.115
X6.4425Y-5.965
X6.505Y-3.615
X6.63Y-2.965
X6.63Y-4.465
X6.6925Y-5.865
X6.8175Y-5.215
X6.88Y-2.865
X6.88Y-4.365
X7.005Y-3.715
X7.0675Y-5.115
X7.1925Y-5.965
X7.255Y-3.615
X7.2875Y-6.715
X7.38Y-2.965
X7.38Y-4.465
X7.4425Y-5.865
X7.5375Y-6.615
X7.5675Y-5.215
X7.63Y-2.865
X7.63Y-4.365
X7.755Y-3.715
X7.8175Y-5.115
X7.9425Y-5.965
X8.005Y-3.615
X8.13Y-2.965
X8.13Y-4.465
X8.1925Y-5.865
X8.3175Y-5.215
X8.38Y-2.865
X8.38Y-4.365
X8.505Y-3.715
X8.5675Y-5.115
X8.6925Y-5.965
X8.755Y-3.615
X8.88Y-2.965
X8.88Y-4.465
X8.9425Y-5.865
X9.0675Y-5.215
X9.13Y-2.865
X9.13Y-4.365
X9.255Y-3.715
X9.3175Y-5.115
X9.4425Y-5.965
X9.505Y-3.615
X9.63Y-2.965
X9.63Y-4.465
X9.6925Y-5.865
X9.8175Y-5.215
X9.88Y-2.865
X9.88Y-4.365
X10.005Y-3.715
X10.005Y-6.715
X10.0675Y-5.115
X10.1925Y-5.965
X10.255Y-3.615
X10.255Y-6.615
X10.38Y-2.965
X10.38Y-4.465
X10.4425Y-5.865
X10.5675Y-5.215
X10.63Y-2.865
X10.63Y-4.365
X10.755Y-3.715
X10.755Y-6.715
X10.8175Y-5.115
X10.9425Y-5.965
X11.005Y-3.615
X11.005Y-6.615
X11.13Y-2.965
X11.13Y-4.465
X11.1925Y-5.865
X11.3175Y-5.215
X11.38Y-2.865
X11.38Y-4.365
X11.505Y-3.715
X11.505Y-6.715
X11.5675Y-5.115
X11.755Y-3.615
X11.755Y-6.615
X11.88Y-2.965
X11.88Y-4.465
X11.9737Y-5.965
X12.0666Y-5.2152
X12.13Y-2.865
X12.13Y-4.365
X12.2237Y-5.865
X12.255Y-6.715
X12.3166Y-5.1152
X12.505Y-6.615
X12.5355Y-5.2152
X12.6299Y-3.715
X12.63Y-2.965
X12.7855Y-5.1152
X12.815Y-4.4656
X12.8799Y-3.615
X12.88Y-2.865
X12.9105Y-4.8402
X13.005Y-5.965
X13.005Y-6.715
X13.065Y-4.3656
X13.1605Y-4.7402
X13.255Y-5.865
X13.255Y-6.615
X13.5675Y-2.965
X13.755Y-3.715
X13.755Y-4.465
X13.755Y-5.215
X13.755Y-5.965
X13.755Y-6.715
X13.8175Y-2.865
X14.005Y-3.615
X14.005Y-4.365
X14.005Y-5.115
X14.005Y-5.865
X14.005Y-6.615
T6
X2.6987Y-5.515
X2.7988Y-5.515
X2.8862Y-5.515
X2.9863Y-5.515
T2
G00X3.1617Y-2.7843
M15
G01X3.1617Y-2.8119
M16
G05
G00X3.1617Y-2.9201
M15
G01X3.1617Y-2.9477
M16
G05
G00X3.4432Y-2.7843
M15
G01X3.4432Y-2.8119
M16
G05
G00X3.4432Y-2.9201
M15
G01X3.4432Y-2.9477
M16
G05
M30
