G04 #@! TF.GenerationSoftware,KiCad,Pcbnew,7.0.10-7.0.10~ubuntu22.04.1*
G04 #@! TF.CreationDate,2024-01-19T16:18:50-06:00*
G04 #@! TF.ProjectId,bear_face_pcb,62656172-5f66-4616-9365-5f7063622e6b,rev?*
G04 #@! TF.SameCoordinates,Original*
G04 #@! TF.FileFunction,Profile,NP*
%FSLAX46Y46*%
G04 Gerber Fmt 4.6, Leading zero omitted, Abs format (unit mm)*
G04 Created by KiCad (PCBNEW 7.0.10-7.0.10~ubuntu22.04.1) date 2024-01-19 16:18:50*
%MOMM*%
%LPD*%
G01*
G04 APERTURE LIST*
G04 #@! TA.AperFunction,Profile*
%ADD10C,0.120000*%
G04 #@! TD*
G04 APERTURE END LIST*
D10*
X360120579Y-82984579D02*
G75*
G03*
X360320579Y-82784579I-1J200001D01*
G01*
X360322000Y-91166000D02*
G75*
G03*
X360122000Y-90966000I-200001J-1D01*
G01*
X60513421Y-148467421D02*
G75*
G03*
X60313421Y-148667421I1J-200001D01*
G01*
X60312000Y-140286000D02*
G75*
G03*
X60512000Y-140486000I200001J1D01*
G01*
X60512000Y-90966000D02*
G75*
G03*
X60312000Y-91166000I1J-200001D01*
G01*
X60312000Y-82784579D02*
G75*
G03*
X60512000Y-82984579I200000J0D01*
G01*
X65361515Y-181597000D02*
X355240091Y-181597000D01*
X355270485Y-69443600D02*
X64125150Y-69448000D01*
X60312000Y-91166000D02*
X60312000Y-140286000D01*
X360320000Y-74523509D02*
X360320000Y-82784579D01*
X360322000Y-91166000D02*
X360320000Y-176547485D01*
X60312000Y-82784579D02*
X60312000Y-73258000D01*
X60312000Y-148667421D02*
X60312000Y-176517917D01*
X60512000Y-90966000D02*
G75*
G03*
X60513347Y-82986068I-200000J3990000D01*
G01*
X360120653Y-82986069D02*
G75*
G03*
X360122000Y-90965998I199347J-3989931D01*
G01*
X355240091Y-181596991D02*
G75*
G03*
X360320000Y-176547485I9J5079991D01*
G01*
X360319991Y-74523509D02*
G75*
G03*
X355270485Y-69443600I-5079991J9D01*
G01*
X60513421Y-148467419D02*
G75*
G03*
X60511774Y-140490498I-201421J3988419D01*
G01*
X60311983Y-176517917D02*
G75*
G03*
X65361515Y-181597826I5080017J17D01*
G01*
X64122000Y-69448050D02*
G75*
G03*
X60312000Y-73258000I-50J-3809950D01*
G01*
M02*
