G04 #@! TF.GenerationSoftware,KiCad,Pcbnew,5.1.10-88a1d61d58~89~ubuntu20.04.1*
G04 #@! TF.CreationDate,2021-07-10T09:08:52-05:00*
G04 #@! TF.ProjectId,bear_face_pcb,62656172-5f66-4616-9365-5f7063622e6b,rev?*
G04 #@! TF.SameCoordinates,Original*
G04 #@! TF.FileFunction,Soldermask,Bot*
G04 #@! TF.FilePolarity,Negative*
%FSLAX46Y46*%
G04 Gerber Fmt 4.6, Leading zero omitted, Abs format (unit mm)*
G04 Created by KiCad (PCBNEW 5.1.10-88a1d61d58~89~ubuntu20.04.1) date 2021-07-10 09:08:52*
%MOMM*%
%LPD*%
G01*
G04 APERTURE LIST*
%ADD10C,2.250000*%
%ADD11C,3.987800*%
%ADD12C,1.750000*%
%ADD13R,1.200000X1.400000*%
%ADD14C,1.800000*%
%ADD15R,1.905000X1.905000*%
%ADD16C,1.905000*%
%ADD17R,2.000000X2.000000*%
%ADD18C,2.000000*%
%ADD19R,1.700000X1.700000*%
%ADD20O,1.700000X1.700000*%
%ADD21R,1.600000X1.600000*%
%ADD22C,1.600000*%
%ADD23R,1.200000X1.600000*%
%ADD24R,1.060000X0.650000*%
%ADD25R,0.900000X0.800000*%
%ADD26O,0.800000X0.800000*%
%ADD27O,1.150000X1.800000*%
%ADD28O,1.450000X2.000000*%
%ADD29R,0.450000X1.300000*%
%ADD30C,3.000000*%
%ADD31C,6.000000*%
G04 APERTURE END LIST*
G36*
G01*
X163016300Y-161951300D02*
X162103800Y-161951300D01*
G75*
G02*
X161860050Y-161707550I0J243750D01*
G01*
X161860050Y-161220050D01*
G75*
G02*
X162103800Y-160976300I243750J0D01*
G01*
X163016300Y-160976300D01*
G75*
G02*
X163260050Y-161220050I0J-243750D01*
G01*
X163260050Y-161707550D01*
G75*
G02*
X163016300Y-161951300I-243750J0D01*
G01*
G37*
G36*
G01*
X163016300Y-163826300D02*
X162103800Y-163826300D01*
G75*
G02*
X161860050Y-163582550I0J243750D01*
G01*
X161860050Y-163095050D01*
G75*
G02*
X162103800Y-162851300I243750J0D01*
G01*
X163016300Y-162851300D01*
G75*
G02*
X163260050Y-163095050I0J-243750D01*
G01*
X163260050Y-163582550D01*
G75*
G02*
X163016300Y-163826300I-243750J0D01*
G01*
G37*
G36*
G01*
X73983000Y-144220250D02*
X73983000Y-143307750D01*
G75*
G02*
X74226750Y-143064000I243750J0D01*
G01*
X74714250Y-143064000D01*
G75*
G02*
X74958000Y-143307750I0J-243750D01*
G01*
X74958000Y-144220250D01*
G75*
G02*
X74714250Y-144464000I-243750J0D01*
G01*
X74226750Y-144464000D01*
G75*
G02*
X73983000Y-144220250I0J243750D01*
G01*
G37*
G36*
G01*
X72108000Y-144220250D02*
X72108000Y-143307750D01*
G75*
G02*
X72351750Y-143064000I243750J0D01*
G01*
X72839250Y-143064000D01*
G75*
G02*
X73083000Y-143307750I0J-243750D01*
G01*
X73083000Y-144220250D01*
G75*
G02*
X72839250Y-144464000I-243750J0D01*
G01*
X72351750Y-144464000D01*
G75*
G02*
X72108000Y-144220250I0J243750D01*
G01*
G37*
G36*
G01*
X85141750Y-144214000D02*
X86054250Y-144214000D01*
G75*
G02*
X86298000Y-144457750I0J-243750D01*
G01*
X86298000Y-144945250D01*
G75*
G02*
X86054250Y-145189000I-243750J0D01*
G01*
X85141750Y-145189000D01*
G75*
G02*
X84898000Y-144945250I0J243750D01*
G01*
X84898000Y-144457750D01*
G75*
G02*
X85141750Y-144214000I243750J0D01*
G01*
G37*
G36*
G01*
X85141750Y-142339000D02*
X86054250Y-142339000D01*
G75*
G02*
X86298000Y-142582750I0J-243750D01*
G01*
X86298000Y-143070250D01*
G75*
G02*
X86054250Y-143314000I-243750J0D01*
G01*
X85141750Y-143314000D01*
G75*
G02*
X84898000Y-143070250I0J243750D01*
G01*
X84898000Y-142582750D01*
G75*
G02*
X85141750Y-142339000I243750J0D01*
G01*
G37*
G36*
G01*
X147144750Y-177457420D02*
X148057250Y-177457420D01*
G75*
G02*
X148301000Y-177701170I0J-243750D01*
G01*
X148301000Y-178188670D01*
G75*
G02*
X148057250Y-178432420I-243750J0D01*
G01*
X147144750Y-178432420D01*
G75*
G02*
X146901000Y-178188670I0J243750D01*
G01*
X146901000Y-177701170D01*
G75*
G02*
X147144750Y-177457420I243750J0D01*
G01*
G37*
G36*
G01*
X147144750Y-175582420D02*
X148057250Y-175582420D01*
G75*
G02*
X148301000Y-175826170I0J-243750D01*
G01*
X148301000Y-176313670D01*
G75*
G02*
X148057250Y-176557420I-243750J0D01*
G01*
X147144750Y-176557420D01*
G75*
G02*
X146901000Y-176313670I0J243750D01*
G01*
X146901000Y-175826170D01*
G75*
G02*
X147144750Y-175582420I243750J0D01*
G01*
G37*
G36*
G01*
X82676050Y-86925600D02*
X81763550Y-86925600D01*
G75*
G02*
X81519800Y-86681850I0J243750D01*
G01*
X81519800Y-86194350D01*
G75*
G02*
X81763550Y-85950600I243750J0D01*
G01*
X82676050Y-85950600D01*
G75*
G02*
X82919800Y-86194350I0J-243750D01*
G01*
X82919800Y-86681850D01*
G75*
G02*
X82676050Y-86925600I-243750J0D01*
G01*
G37*
G36*
G01*
X82676050Y-88800600D02*
X81763550Y-88800600D01*
G75*
G02*
X81519800Y-88556850I0J243750D01*
G01*
X81519800Y-88069350D01*
G75*
G02*
X81763550Y-87825600I243750J0D01*
G01*
X82676050Y-87825600D01*
G75*
G02*
X82919800Y-88069350I0J-243750D01*
G01*
X82919800Y-88556850D01*
G75*
G02*
X82676050Y-88800600I-243750J0D01*
G01*
G37*
G36*
G01*
X85279550Y-86925600D02*
X84367050Y-86925600D01*
G75*
G02*
X84123300Y-86681850I0J243750D01*
G01*
X84123300Y-86194350D01*
G75*
G02*
X84367050Y-85950600I243750J0D01*
G01*
X85279550Y-85950600D01*
G75*
G02*
X85523300Y-86194350I0J-243750D01*
G01*
X85523300Y-86681850D01*
G75*
G02*
X85279550Y-86925600I-243750J0D01*
G01*
G37*
G36*
G01*
X85279550Y-88800600D02*
X84367050Y-88800600D01*
G75*
G02*
X84123300Y-88556850I0J243750D01*
G01*
X84123300Y-88069350D01*
G75*
G02*
X84367050Y-87825600I243750J0D01*
G01*
X85279550Y-87825600D01*
G75*
G02*
X85523300Y-88069350I0J-243750D01*
G01*
X85523300Y-88556850D01*
G75*
G02*
X85279550Y-88800600I-243750J0D01*
G01*
G37*
G36*
G01*
X147257300Y-164026850D02*
X147257300Y-163114350D01*
G75*
G02*
X147501050Y-162870600I243750J0D01*
G01*
X147988550Y-162870600D01*
G75*
G02*
X148232300Y-163114350I0J-243750D01*
G01*
X148232300Y-164026850D01*
G75*
G02*
X147988550Y-164270600I-243750J0D01*
G01*
X147501050Y-164270600D01*
G75*
G02*
X147257300Y-164026850I0J243750D01*
G01*
G37*
G36*
G01*
X145382300Y-164026850D02*
X145382300Y-163114350D01*
G75*
G02*
X145626050Y-162870600I243750J0D01*
G01*
X146113550Y-162870600D01*
G75*
G02*
X146357300Y-163114350I0J-243750D01*
G01*
X146357300Y-164026850D01*
G75*
G02*
X146113550Y-164270600I-243750J0D01*
G01*
X145626050Y-164270600D01*
G75*
G02*
X145382300Y-164026850I0J243750D01*
G01*
G37*
G36*
G01*
X144763650Y-177456150D02*
X145676150Y-177456150D01*
G75*
G02*
X145919900Y-177699900I0J-243750D01*
G01*
X145919900Y-178187400D01*
G75*
G02*
X145676150Y-178431150I-243750J0D01*
G01*
X144763650Y-178431150D01*
G75*
G02*
X144519900Y-178187400I0J243750D01*
G01*
X144519900Y-177699900D01*
G75*
G02*
X144763650Y-177456150I243750J0D01*
G01*
G37*
G36*
G01*
X144763650Y-175581150D02*
X145676150Y-175581150D01*
G75*
G02*
X145919900Y-175824900I0J-243750D01*
G01*
X145919900Y-176312400D01*
G75*
G02*
X145676150Y-176556150I-243750J0D01*
G01*
X144763650Y-176556150D01*
G75*
G02*
X144519900Y-176312400I0J243750D01*
G01*
X144519900Y-175824900D01*
G75*
G02*
X144763650Y-175581150I243750J0D01*
G01*
G37*
G36*
G01*
X160071800Y-162851300D02*
X160984300Y-162851300D01*
G75*
G02*
X161228050Y-163095050I0J-243750D01*
G01*
X161228050Y-163582550D01*
G75*
G02*
X160984300Y-163826300I-243750J0D01*
G01*
X160071800Y-163826300D01*
G75*
G02*
X159828050Y-163582550I0J243750D01*
G01*
X159828050Y-163095050D01*
G75*
G02*
X160071800Y-162851300I243750J0D01*
G01*
G37*
G36*
G01*
X160071800Y-160976300D02*
X160984300Y-160976300D01*
G75*
G02*
X161228050Y-161220050I0J-243750D01*
G01*
X161228050Y-161707550D01*
G75*
G02*
X160984300Y-161951300I-243750J0D01*
G01*
X160071800Y-161951300D01*
G75*
G02*
X159828050Y-161707550I0J243750D01*
G01*
X159828050Y-161220050D01*
G75*
G02*
X160071800Y-160976300I243750J0D01*
G01*
G37*
G36*
G01*
X161550150Y-176613500D02*
X160637650Y-176613500D01*
G75*
G02*
X160393900Y-176369750I0J243750D01*
G01*
X160393900Y-175882250D01*
G75*
G02*
X160637650Y-175638500I243750J0D01*
G01*
X161550150Y-175638500D01*
G75*
G02*
X161793900Y-175882250I0J-243750D01*
G01*
X161793900Y-176369750D01*
G75*
G02*
X161550150Y-176613500I-243750J0D01*
G01*
G37*
G36*
G01*
X161550150Y-178488500D02*
X160637650Y-178488500D01*
G75*
G02*
X160393900Y-178244750I0J243750D01*
G01*
X160393900Y-177757250D01*
G75*
G02*
X160637650Y-177513500I243750J0D01*
G01*
X161550150Y-177513500D01*
G75*
G02*
X161793900Y-177757250I0J-243750D01*
G01*
X161793900Y-178244750D01*
G75*
G02*
X161550150Y-178488500I-243750J0D01*
G01*
G37*
G36*
G01*
X153500600Y-159436750D02*
X153500600Y-160349250D01*
G75*
G02*
X153256850Y-160593000I-243750J0D01*
G01*
X152769350Y-160593000D01*
G75*
G02*
X152525600Y-160349250I0J243750D01*
G01*
X152525600Y-159436750D01*
G75*
G02*
X152769350Y-159193000I243750J0D01*
G01*
X153256850Y-159193000D01*
G75*
G02*
X153500600Y-159436750I0J-243750D01*
G01*
G37*
G36*
G01*
X155375600Y-159436750D02*
X155375600Y-160349250D01*
G75*
G02*
X155131850Y-160593000I-243750J0D01*
G01*
X154644350Y-160593000D01*
G75*
G02*
X154400600Y-160349250I0J243750D01*
G01*
X154400600Y-159436750D01*
G75*
G02*
X154644350Y-159193000I243750J0D01*
G01*
X155131850Y-159193000D01*
G75*
G02*
X155375600Y-159436750I0J-243750D01*
G01*
G37*
G36*
G01*
X166523200Y-164701750D02*
X166523200Y-165614250D01*
G75*
G02*
X166279450Y-165858000I-243750J0D01*
G01*
X165791950Y-165858000D01*
G75*
G02*
X165548200Y-165614250I0J243750D01*
G01*
X165548200Y-164701750D01*
G75*
G02*
X165791950Y-164458000I243750J0D01*
G01*
X166279450Y-164458000D01*
G75*
G02*
X166523200Y-164701750I0J-243750D01*
G01*
G37*
G36*
G01*
X168398200Y-164701750D02*
X168398200Y-165614250D01*
G75*
G02*
X168154450Y-165858000I-243750J0D01*
G01*
X167666950Y-165858000D01*
G75*
G02*
X167423200Y-165614250I0J243750D01*
G01*
X167423200Y-164701750D01*
G75*
G02*
X167666950Y-164458000I243750J0D01*
G01*
X168154450Y-164458000D01*
G75*
G02*
X168398200Y-164701750I0J-243750D01*
G01*
G37*
G36*
G01*
X167423200Y-175138650D02*
X167423200Y-174226150D01*
G75*
G02*
X167666950Y-173982400I243750J0D01*
G01*
X168154450Y-173982400D01*
G75*
G02*
X168398200Y-174226150I0J-243750D01*
G01*
X168398200Y-175138650D01*
G75*
G02*
X168154450Y-175382400I-243750J0D01*
G01*
X167666950Y-175382400D01*
G75*
G02*
X167423200Y-175138650I0J243750D01*
G01*
G37*
G36*
G01*
X165548200Y-175138650D02*
X165548200Y-174226150D01*
G75*
G02*
X165791950Y-173982400I243750J0D01*
G01*
X166279450Y-173982400D01*
G75*
G02*
X166523200Y-174226150I0J-243750D01*
G01*
X166523200Y-175138650D01*
G75*
G02*
X166279450Y-175382400I-243750J0D01*
G01*
X165791950Y-175382400D01*
G75*
G02*
X165548200Y-175138650I0J243750D01*
G01*
G37*
D10*
X191452500Y-168021000D03*
D11*
X188912500Y-173101000D03*
D10*
X185102500Y-170561000D03*
D12*
X183832500Y-173101000D03*
X193992500Y-173101000D03*
D13*
X167499800Y-171020200D03*
X167499800Y-168820200D03*
X165799800Y-168820200D03*
X165799800Y-171020200D03*
D14*
X82586000Y-133044000D03*
X87086000Y-126544000D03*
X87086000Y-133044000D03*
X82586000Y-126544000D03*
D15*
X71088250Y-140081000D03*
D12*
X74898250Y-135001000D03*
D11*
X69818250Y-135001000D03*
D10*
X66008250Y-132461000D03*
D12*
X64738250Y-135001000D03*
D16*
X68548250Y-140081000D03*
D10*
X72358250Y-129921000D03*
D12*
X79660750Y-135001000D03*
X69500750Y-135001000D03*
D17*
X75850750Y-140081000D03*
D18*
X73310750Y-140081000D03*
D10*
X70770750Y-132461000D03*
D11*
X74580750Y-135001000D03*
D10*
X77120750Y-129921000D03*
D19*
X138112500Y-175514000D03*
D20*
X138112500Y-178054000D03*
X135572500Y-175768000D03*
X135572500Y-178308000D03*
X133032500Y-175514000D03*
X133032500Y-178054000D03*
D12*
X327308430Y-134999300D03*
D11*
X322228430Y-134999300D03*
D10*
X324768430Y-129919300D03*
D12*
X317148430Y-134999300D03*
D10*
X318418430Y-132459300D03*
D12*
X336834700Y-125474300D03*
X326674700Y-125474300D03*
D10*
X327944700Y-122934300D03*
D11*
X331754700Y-125474300D03*
D10*
X334294700Y-120394300D03*
X312868001Y-129920500D03*
D11*
X310328001Y-135000500D03*
D10*
X306518001Y-132460500D03*
D12*
X305248001Y-135000500D03*
X315408001Y-135000500D03*
D10*
X331911960Y-110867960D03*
D11*
X329371960Y-115947960D03*
D10*
X325561960Y-113407960D03*
D12*
X324291960Y-115947960D03*
X334451960Y-115947960D03*
D21*
X302387800Y-138898700D03*
D22*
X302387800Y-131098700D03*
D23*
X302387800Y-136398700D03*
X302387800Y-133598700D03*
D10*
X66008250Y-151495760D03*
D11*
X69818250Y-154035760D03*
D10*
X72358250Y-148955760D03*
D12*
X74898250Y-154035760D03*
X64738250Y-154035760D03*
D10*
X81889600Y-148955760D03*
D11*
X79349600Y-154035760D03*
D10*
X75539600Y-151495760D03*
D12*
X74269600Y-154035760D03*
X84429600Y-154035760D03*
D10*
X93810000Y-148970000D03*
D11*
X91270000Y-154050000D03*
D10*
X87460000Y-151510000D03*
D12*
X86190000Y-154050000D03*
X96350000Y-154050000D03*
D21*
X100772850Y-157949800D03*
D22*
X100772850Y-150149800D03*
D23*
X100772850Y-155449800D03*
X100772850Y-152649800D03*
D21*
X331755750Y-138901000D03*
D22*
X331755750Y-131101000D03*
D23*
X331755750Y-136401000D03*
X331755750Y-133601000D03*
D10*
X74739500Y-72771000D03*
D11*
X72199500Y-77851000D03*
D10*
X68389500Y-75311000D03*
D12*
X67119500Y-77851000D03*
X77279500Y-77851000D03*
D10*
X98552000Y-72771000D03*
D11*
X96012000Y-77851000D03*
D10*
X92202000Y-75311000D03*
D12*
X90932000Y-77851000D03*
X101092000Y-77851000D03*
D21*
X344932000Y-177001000D03*
D22*
X344932000Y-169201000D03*
D23*
X344932000Y-174501000D03*
X344932000Y-171701000D03*
D21*
X342392000Y-177001000D03*
D22*
X342392000Y-169201000D03*
D23*
X342392000Y-174501000D03*
X342392000Y-171701000D03*
D21*
X324612000Y-177001000D03*
D22*
X324612000Y-169201000D03*
D23*
X324612000Y-174501000D03*
X324612000Y-171701000D03*
D21*
X305562000Y-177001000D03*
D22*
X305562000Y-169201000D03*
D23*
X305562000Y-174501000D03*
X305562000Y-171701000D03*
D21*
X286512000Y-177001000D03*
D22*
X286512000Y-169201000D03*
D23*
X286512000Y-174501000D03*
X286512000Y-171701000D03*
D21*
X267462000Y-177001000D03*
D22*
X267462000Y-169201000D03*
D23*
X267462000Y-174501000D03*
X267462000Y-171701000D03*
D21*
X198405750Y-177001000D03*
D22*
X198405750Y-169201000D03*
D23*
X198405750Y-174501000D03*
X198405750Y-171701000D03*
D21*
X126968250Y-177001000D03*
D22*
X126968250Y-169201000D03*
D23*
X126968250Y-174501000D03*
X126968250Y-171701000D03*
D21*
X103155750Y-177001000D03*
D22*
X103155750Y-169201000D03*
D23*
X103155750Y-174501000D03*
X103155750Y-171701000D03*
D21*
X61880750Y-177001000D03*
D22*
X61880750Y-169201000D03*
D23*
X61880750Y-174501000D03*
X61880750Y-171701000D03*
D21*
X343662000Y-157951000D03*
D22*
X343662000Y-150151000D03*
D23*
X343662000Y-155451000D03*
X343662000Y-152651000D03*
D21*
X324612000Y-157951000D03*
D22*
X324612000Y-150151000D03*
D23*
X324612000Y-155451000D03*
X324612000Y-152651000D03*
D21*
X317468250Y-157951000D03*
D22*
X317468250Y-150151000D03*
D23*
X317468250Y-155451000D03*
X317468250Y-152651000D03*
D21*
X291274500Y-157951000D03*
D22*
X291274500Y-150151000D03*
D23*
X291274500Y-155451000D03*
X291274500Y-152651000D03*
D21*
X272224500Y-157951000D03*
D22*
X272224500Y-150151000D03*
D23*
X272224500Y-155451000D03*
X272224500Y-152651000D03*
D21*
X253174500Y-157951000D03*
D22*
X253174500Y-150151000D03*
D23*
X253174500Y-155451000D03*
X253174500Y-152651000D03*
D21*
X234124500Y-157951000D03*
D22*
X234124500Y-150151000D03*
D23*
X234124500Y-155451000D03*
X234124500Y-152651000D03*
D21*
X215074500Y-157951000D03*
D22*
X215074500Y-150151000D03*
D23*
X215074500Y-155451000D03*
X215074500Y-152651000D03*
D21*
X196024500Y-157951000D03*
D22*
X196024500Y-150151000D03*
D23*
X196024500Y-155451000D03*
X196024500Y-152651000D03*
D21*
X176974500Y-157951000D03*
D22*
X176974500Y-150151000D03*
D23*
X176974500Y-155451000D03*
X176974500Y-152651000D03*
D21*
X157924500Y-157951000D03*
D22*
X157924500Y-150151000D03*
D23*
X157924500Y-155451000D03*
X157924500Y-152651000D03*
D21*
X138874500Y-157951000D03*
D22*
X138874500Y-150151000D03*
D23*
X138874500Y-155451000D03*
X138874500Y-152651000D03*
D21*
X119824500Y-157951000D03*
D22*
X119824500Y-150151000D03*
D23*
X119824500Y-155451000D03*
X119824500Y-152651000D03*
D21*
X62690400Y-157947500D03*
D22*
X62690400Y-150147500D03*
D23*
X62690400Y-155447500D03*
X62690400Y-152647500D03*
D21*
X343662000Y-138901000D03*
D22*
X343662000Y-131101000D03*
D23*
X343662000Y-136401000D03*
X343662000Y-133601000D03*
D21*
X299213000Y-138898700D03*
D22*
X299213000Y-131098700D03*
D23*
X299213000Y-136398700D03*
X299213000Y-133598700D03*
D21*
X281749500Y-138901000D03*
D22*
X281749500Y-131101000D03*
D23*
X281749500Y-136401000D03*
X281749500Y-133601000D03*
D21*
X262699500Y-138901000D03*
D22*
X262699500Y-131101000D03*
D23*
X262699500Y-136401000D03*
X262699500Y-133601000D03*
D21*
X243649500Y-138901000D03*
D22*
X243649500Y-131101000D03*
D23*
X243649500Y-136401000D03*
X243649500Y-133601000D03*
D21*
X224599500Y-138901000D03*
D22*
X224599500Y-131101000D03*
D23*
X224599500Y-136401000D03*
X224599500Y-133601000D03*
D21*
X205549500Y-138901000D03*
D22*
X205549500Y-131101000D03*
D23*
X205549500Y-136401000D03*
X205549500Y-133601000D03*
D21*
X169037000Y-138901000D03*
D22*
X169037000Y-131101000D03*
D23*
X169037000Y-136401000D03*
X169037000Y-133601000D03*
D21*
X165862000Y-138901000D03*
D22*
X165862000Y-131101000D03*
D23*
X165862000Y-136401000D03*
X165862000Y-133601000D03*
D21*
X148399500Y-138901000D03*
D22*
X148399500Y-131101000D03*
D23*
X148399500Y-136401000D03*
X148399500Y-133601000D03*
D21*
X129349500Y-138901000D03*
D22*
X129349500Y-131101000D03*
D23*
X129349500Y-136401000D03*
X129349500Y-133601000D03*
D21*
X110299500Y-138901000D03*
D22*
X110299500Y-131101000D03*
D23*
X110299500Y-136401000D03*
X110299500Y-133601000D03*
D21*
X62596750Y-138901000D03*
D22*
X62596750Y-131101000D03*
D23*
X62596750Y-136401000D03*
X62596750Y-133601000D03*
D21*
X343662000Y-119851000D03*
D22*
X343662000Y-112051000D03*
D23*
X343662000Y-117351000D03*
X343662000Y-114551000D03*
D21*
X338899500Y-119851000D03*
D22*
X338899500Y-112051000D03*
D23*
X338899500Y-117351000D03*
X338899500Y-114551000D03*
D21*
X297624500Y-119851000D03*
D22*
X297624500Y-112051000D03*
D23*
X297624500Y-117351000D03*
X297624500Y-114551000D03*
D21*
X294449500Y-119851000D03*
D22*
X294449500Y-112051000D03*
D23*
X294449500Y-117351000D03*
X294449500Y-114551000D03*
D21*
X276987000Y-119851000D03*
D22*
X276987000Y-112051000D03*
D23*
X276987000Y-117351000D03*
X276987000Y-114551000D03*
D21*
X257937000Y-119851000D03*
D22*
X257937000Y-112051000D03*
D23*
X257937000Y-117351000D03*
X257937000Y-114551000D03*
D21*
X238887000Y-119851000D03*
D22*
X238887000Y-112051000D03*
D23*
X238887000Y-117351000D03*
X238887000Y-114551000D03*
D21*
X219837000Y-119851000D03*
D22*
X219837000Y-112051000D03*
D23*
X219837000Y-117351000D03*
X219837000Y-114551000D03*
D21*
X200787000Y-119851000D03*
D22*
X200787000Y-112051000D03*
D23*
X200787000Y-117351000D03*
X200787000Y-114551000D03*
D21*
X181737000Y-119851000D03*
D22*
X181737000Y-112051000D03*
D23*
X181737000Y-117351000D03*
X181737000Y-114551000D03*
D21*
X162687000Y-119851000D03*
D22*
X162687000Y-112051000D03*
D23*
X162687000Y-117351000D03*
X162687000Y-114551000D03*
D21*
X143637000Y-119851000D03*
D22*
X143637000Y-112051000D03*
D23*
X143637000Y-117351000D03*
X143637000Y-114551000D03*
D21*
X124587000Y-119851000D03*
D22*
X124587000Y-112051000D03*
D23*
X124587000Y-117351000D03*
X124587000Y-114551000D03*
D21*
X105537000Y-119851000D03*
D22*
X105537000Y-112051000D03*
D23*
X105537000Y-117351000D03*
X105537000Y-114551000D03*
D21*
X63468250Y-119851000D03*
D22*
X63468250Y-112051000D03*
D23*
X63468250Y-117351000D03*
X63468250Y-114551000D03*
D21*
X343662000Y-100801000D03*
D22*
X343662000Y-93001000D03*
D23*
X343662000Y-98301000D03*
X343662000Y-95501000D03*
D21*
X334137000Y-100801000D03*
D22*
X334137000Y-93001000D03*
D23*
X334137000Y-98301000D03*
X334137000Y-95501000D03*
D21*
X305562000Y-100801000D03*
D22*
X305562000Y-93001000D03*
D23*
X305562000Y-98301000D03*
X305562000Y-95501000D03*
D21*
X286512000Y-100801000D03*
D22*
X286512000Y-93001000D03*
D23*
X286512000Y-98301000D03*
X286512000Y-95501000D03*
D21*
X267462000Y-100801000D03*
D22*
X267462000Y-93001000D03*
D23*
X267462000Y-98301000D03*
X267462000Y-95501000D03*
D21*
X248412000Y-100801000D03*
D22*
X248412000Y-93001000D03*
D23*
X248412000Y-98301000D03*
X248412000Y-95501000D03*
D21*
X229362000Y-100801000D03*
D22*
X229362000Y-93001000D03*
D23*
X229362000Y-98301000D03*
X229362000Y-95501000D03*
D21*
X210312000Y-100801000D03*
D22*
X210312000Y-93001000D03*
D23*
X210312000Y-98301000D03*
X210312000Y-95501000D03*
D21*
X191262000Y-100801000D03*
D22*
X191262000Y-93001000D03*
D23*
X191262000Y-98301000D03*
X191262000Y-95501000D03*
D21*
X172212000Y-100801000D03*
D22*
X172212000Y-93001000D03*
D23*
X172212000Y-98301000D03*
X172212000Y-95501000D03*
D21*
X153162000Y-100801000D03*
D22*
X153162000Y-93001000D03*
D23*
X153162000Y-98301000D03*
X153162000Y-95501000D03*
D21*
X134112000Y-100801000D03*
D22*
X134112000Y-93001000D03*
D23*
X134112000Y-98301000D03*
X134112000Y-95501000D03*
D21*
X115062000Y-100801000D03*
D22*
X115062000Y-93001000D03*
D23*
X115062000Y-98301000D03*
X115062000Y-95501000D03*
D21*
X96012000Y-100801000D03*
D22*
X96012000Y-93001000D03*
D23*
X96012000Y-98301000D03*
X96012000Y-95501000D03*
D21*
X76962000Y-100801000D03*
D22*
X76962000Y-93001000D03*
D23*
X76962000Y-98301000D03*
X76962000Y-95501000D03*
D21*
X338899500Y-81751000D03*
D22*
X338899500Y-73951000D03*
D23*
X338899500Y-79251000D03*
X338899500Y-76451000D03*
D21*
X334137000Y-81751000D03*
D22*
X334137000Y-73951000D03*
D23*
X334137000Y-79251000D03*
X334137000Y-76451000D03*
D21*
X315087000Y-81751000D03*
D22*
X315087000Y-73951000D03*
D23*
X315087000Y-79251000D03*
X315087000Y-76451000D03*
D21*
X296037000Y-81751000D03*
D22*
X296037000Y-73951000D03*
D23*
X296037000Y-79251000D03*
X296037000Y-76451000D03*
D21*
X276987000Y-81751000D03*
D22*
X276987000Y-73951000D03*
D23*
X276987000Y-79251000D03*
X276987000Y-76451000D03*
D21*
X257937000Y-81751000D03*
D22*
X257937000Y-73951000D03*
D23*
X257937000Y-79251000D03*
X257937000Y-76451000D03*
D21*
X238887000Y-81751000D03*
D22*
X238887000Y-73951000D03*
D23*
X238887000Y-79251000D03*
X238887000Y-76451000D03*
D21*
X219837000Y-81751000D03*
D22*
X219837000Y-73951000D03*
D23*
X219837000Y-79251000D03*
X219837000Y-76451000D03*
D21*
X200787000Y-81751000D03*
D22*
X200787000Y-73951000D03*
D23*
X200787000Y-79251000D03*
X200787000Y-76451000D03*
D21*
X181737000Y-81751000D03*
D22*
X181737000Y-73951000D03*
D23*
X181737000Y-79251000D03*
X181737000Y-76451000D03*
D21*
X162687000Y-81751000D03*
D22*
X162687000Y-73951000D03*
D23*
X162687000Y-79251000D03*
X162687000Y-76451000D03*
D21*
X143637000Y-81751000D03*
D22*
X143637000Y-73951000D03*
D23*
X143637000Y-79251000D03*
X143637000Y-76451000D03*
D21*
X124587000Y-81751000D03*
D22*
X124587000Y-73951000D03*
D23*
X124587000Y-79251000D03*
X124587000Y-76451000D03*
D21*
X105537000Y-84132250D03*
D22*
X105537000Y-76332250D03*
D23*
X105537000Y-81632250D03*
X105537000Y-78832250D03*
D21*
X63468250Y-81751000D03*
D22*
X63468250Y-73951000D03*
D23*
X63468250Y-79251000D03*
X63468250Y-76451000D03*
D10*
X193802000Y-110871000D03*
D11*
X191262000Y-115951000D03*
D10*
X187452000Y-113411000D03*
D12*
X186182000Y-115951000D03*
X196342000Y-115951000D03*
D10*
X155702000Y-72771000D03*
D11*
X153162000Y-77851000D03*
D10*
X149352000Y-75311000D03*
D12*
X148082000Y-77851000D03*
X158242000Y-77851000D03*
D10*
X155702000Y-110871000D03*
D11*
X153162000Y-115951000D03*
D10*
X149352000Y-113411000D03*
D12*
X148082000Y-115951000D03*
X158242000Y-115951000D03*
D10*
X327149460Y-91821000D03*
D11*
X324609460Y-96901000D03*
D10*
X320799460Y-94361000D03*
D12*
X319529460Y-96901000D03*
X329689460Y-96901000D03*
D10*
X355727000Y-168021000D03*
D11*
X353187000Y-173101000D03*
D10*
X349377000Y-170561000D03*
D12*
X348107000Y-173101000D03*
X358267000Y-173101000D03*
D10*
X336677000Y-168021000D03*
D11*
X334137000Y-173101000D03*
D10*
X330327000Y-170561000D03*
D12*
X329057000Y-173101000D03*
X339217000Y-173101000D03*
D10*
X317627000Y-168021000D03*
D11*
X315087000Y-173101000D03*
D10*
X311277000Y-170561000D03*
D12*
X310007000Y-173101000D03*
X320167000Y-173101000D03*
D10*
X298577000Y-168021000D03*
D11*
X296037000Y-173101000D03*
D10*
X292227000Y-170561000D03*
D12*
X290957000Y-173101000D03*
X301117000Y-173101000D03*
D10*
X279527000Y-168021000D03*
D11*
X276987000Y-173101000D03*
D10*
X273177000Y-170561000D03*
D12*
X271907000Y-173101000D03*
X282067000Y-173101000D03*
D10*
X260477000Y-168021000D03*
D11*
X257937000Y-173101000D03*
D10*
X254127000Y-170561000D03*
D12*
X252857000Y-173101000D03*
X263017000Y-173101000D03*
D10*
X119983250Y-168021000D03*
D11*
X117443250Y-173101000D03*
D10*
X113633250Y-170561000D03*
D12*
X112363250Y-173101000D03*
X122523250Y-173101000D03*
D10*
X96170750Y-168021000D03*
D11*
X93630750Y-173101000D03*
D10*
X89820750Y-170561000D03*
D12*
X88550750Y-173101000D03*
X98710750Y-173101000D03*
D10*
X72358250Y-168021000D03*
D11*
X69818250Y-173101000D03*
D10*
X66008250Y-170561000D03*
D12*
X64738250Y-173101000D03*
X74898250Y-173101000D03*
D10*
X355727000Y-148971000D03*
D11*
X353187000Y-154051000D03*
D10*
X349377000Y-151511000D03*
D12*
X348107000Y-154051000D03*
X358267000Y-154051000D03*
D10*
X336677000Y-148971000D03*
D11*
X334137000Y-154051000D03*
D10*
X330327000Y-151511000D03*
D12*
X329057000Y-154051000D03*
X339217000Y-154051000D03*
D10*
X310483250Y-148971000D03*
D11*
X307943250Y-154051000D03*
D10*
X304133250Y-151511000D03*
D12*
X302863250Y-154051000D03*
X313023250Y-154051000D03*
D10*
X284289500Y-148971000D03*
D11*
X281749500Y-154051000D03*
D10*
X277939500Y-151511000D03*
D12*
X276669500Y-154051000D03*
X286829500Y-154051000D03*
D10*
X265239500Y-148971000D03*
D11*
X262699500Y-154051000D03*
D10*
X258889500Y-151511000D03*
D12*
X257619500Y-154051000D03*
X267779500Y-154051000D03*
D10*
X246189500Y-148971000D03*
D11*
X243649500Y-154051000D03*
D10*
X239839500Y-151511000D03*
D12*
X238569500Y-154051000D03*
X248729500Y-154051000D03*
D10*
X227139500Y-148971000D03*
D11*
X224599500Y-154051000D03*
D10*
X220789500Y-151511000D03*
D12*
X219519500Y-154051000D03*
X229679500Y-154051000D03*
D10*
X208089500Y-148971000D03*
D11*
X205549500Y-154051000D03*
D10*
X201739500Y-151511000D03*
D12*
X200469500Y-154051000D03*
X210629500Y-154051000D03*
D10*
X189039500Y-148971000D03*
D11*
X186499500Y-154051000D03*
D10*
X182689500Y-151511000D03*
D12*
X181419500Y-154051000D03*
X191579500Y-154051000D03*
D10*
X169989500Y-148971000D03*
D11*
X167449500Y-154051000D03*
D10*
X163639500Y-151511000D03*
D12*
X162369500Y-154051000D03*
X172529500Y-154051000D03*
D10*
X150939500Y-148971000D03*
D11*
X148399500Y-154051000D03*
D10*
X144589500Y-151511000D03*
D12*
X143319500Y-154051000D03*
X153479500Y-154051000D03*
D10*
X131889500Y-148971000D03*
D11*
X129349500Y-154051000D03*
D10*
X125539500Y-151511000D03*
D12*
X124269500Y-154051000D03*
X134429500Y-154051000D03*
D10*
X112839500Y-148971000D03*
D11*
X110299500Y-154051000D03*
D10*
X106489500Y-151511000D03*
D12*
X105219500Y-154051000D03*
X115379500Y-154051000D03*
D10*
X355727000Y-129921000D03*
D11*
X353187000Y-135001000D03*
D10*
X349377000Y-132461000D03*
D12*
X348107000Y-135001000D03*
X358267000Y-135001000D03*
D10*
X293814500Y-129921000D03*
D11*
X291274500Y-135001000D03*
D10*
X287464500Y-132461000D03*
D12*
X286194500Y-135001000D03*
X296354500Y-135001000D03*
D10*
X274764500Y-129921000D03*
D11*
X272224500Y-135001000D03*
D10*
X268414500Y-132461000D03*
D12*
X267144500Y-135001000D03*
X277304500Y-135001000D03*
D10*
X255714500Y-129921000D03*
D11*
X253174500Y-135001000D03*
D10*
X249364500Y-132461000D03*
D12*
X248094500Y-135001000D03*
X258254500Y-135001000D03*
D10*
X236664500Y-129921000D03*
D11*
X234124500Y-135001000D03*
D10*
X230314500Y-132461000D03*
D12*
X229044500Y-135001000D03*
X239204500Y-135001000D03*
D10*
X217614500Y-129921000D03*
D11*
X215074500Y-135001000D03*
D10*
X211264500Y-132461000D03*
D12*
X209994500Y-135001000D03*
X220154500Y-135001000D03*
D10*
X198564500Y-129921000D03*
D11*
X196024500Y-135001000D03*
D10*
X192214500Y-132461000D03*
D12*
X190944500Y-135001000D03*
X201104500Y-135001000D03*
D10*
X179514500Y-129921000D03*
D11*
X176974500Y-135001000D03*
D10*
X173164500Y-132461000D03*
D12*
X171894500Y-135001000D03*
X182054500Y-135001000D03*
D10*
X160464500Y-129921000D03*
D11*
X157924500Y-135001000D03*
D10*
X154114500Y-132461000D03*
D12*
X152844500Y-135001000D03*
X163004500Y-135001000D03*
D10*
X141414500Y-129921000D03*
D11*
X138874500Y-135001000D03*
D10*
X135064500Y-132461000D03*
D12*
X133794500Y-135001000D03*
X143954500Y-135001000D03*
D10*
X122364500Y-129921000D03*
D11*
X119824500Y-135001000D03*
D10*
X116014500Y-132461000D03*
D12*
X114744500Y-135001000D03*
X124904500Y-135001000D03*
D10*
X103314500Y-129921000D03*
D11*
X100774500Y-135001000D03*
D10*
X96964500Y-132461000D03*
D12*
X95694500Y-135001000D03*
X105854500Y-135001000D03*
D10*
X355727000Y-110871000D03*
D11*
X353187000Y-115951000D03*
D10*
X349377000Y-113411000D03*
D12*
X348107000Y-115951000D03*
X358267000Y-115951000D03*
D10*
X308102000Y-110871000D03*
D11*
X305562000Y-115951000D03*
D10*
X301752000Y-113411000D03*
D12*
X300482000Y-115951000D03*
X310642000Y-115951000D03*
D10*
X289052000Y-110871000D03*
D11*
X286512000Y-115951000D03*
D10*
X282702000Y-113411000D03*
D12*
X281432000Y-115951000D03*
X291592000Y-115951000D03*
D10*
X270002000Y-110871000D03*
D11*
X267462000Y-115951000D03*
D10*
X263652000Y-113411000D03*
D12*
X262382000Y-115951000D03*
X272542000Y-115951000D03*
D10*
X250952000Y-110871000D03*
D11*
X248412000Y-115951000D03*
D10*
X244602000Y-113411000D03*
D12*
X243332000Y-115951000D03*
X253492000Y-115951000D03*
D10*
X231902000Y-110871000D03*
D11*
X229362000Y-115951000D03*
D10*
X225552000Y-113411000D03*
D12*
X224282000Y-115951000D03*
X234442000Y-115951000D03*
D10*
X212852000Y-110871000D03*
D11*
X210312000Y-115951000D03*
D10*
X206502000Y-113411000D03*
D12*
X205232000Y-115951000D03*
X215392000Y-115951000D03*
D10*
X174752000Y-110871000D03*
D11*
X172212000Y-115951000D03*
D10*
X168402000Y-113411000D03*
D12*
X167132000Y-115951000D03*
X177292000Y-115951000D03*
D10*
X136652000Y-110871000D03*
D11*
X134112000Y-115951000D03*
D10*
X130302000Y-113411000D03*
D12*
X129032000Y-115951000D03*
X139192000Y-115951000D03*
D10*
X117602000Y-110871000D03*
D11*
X115062000Y-115951000D03*
D10*
X111252000Y-113411000D03*
D12*
X109982000Y-115951000D03*
X120142000Y-115951000D03*
D10*
X98552000Y-110871000D03*
D11*
X96012000Y-115951000D03*
D10*
X92202000Y-113411000D03*
D12*
X90932000Y-115951000D03*
X101092000Y-115951000D03*
D10*
X74739500Y-110871000D03*
D11*
X72199500Y-115951000D03*
D10*
X68389500Y-113411000D03*
D12*
X67119500Y-115951000D03*
X77279500Y-115951000D03*
D10*
X355727000Y-91821000D03*
D11*
X353187000Y-96901000D03*
D10*
X349377000Y-94361000D03*
D12*
X348107000Y-96901000D03*
X358267000Y-96901000D03*
D10*
X298577000Y-91821000D03*
D11*
X296037000Y-96901000D03*
D10*
X292227000Y-94361000D03*
D12*
X290957000Y-96901000D03*
X301117000Y-96901000D03*
D10*
X279527000Y-91821000D03*
D11*
X276987000Y-96901000D03*
D10*
X273177000Y-94361000D03*
D12*
X271907000Y-96901000D03*
X282067000Y-96901000D03*
D10*
X260477000Y-91821000D03*
D11*
X257937000Y-96901000D03*
D10*
X254127000Y-94361000D03*
D12*
X252857000Y-96901000D03*
X263017000Y-96901000D03*
D10*
X241427000Y-91821000D03*
D11*
X238887000Y-96901000D03*
D10*
X235077000Y-94361000D03*
D12*
X233807000Y-96901000D03*
X243967000Y-96901000D03*
D10*
X222377000Y-91821000D03*
D11*
X219837000Y-96901000D03*
D10*
X216027000Y-94361000D03*
D12*
X214757000Y-96901000D03*
X224917000Y-96901000D03*
D10*
X203327000Y-91821000D03*
D11*
X200787000Y-96901000D03*
D10*
X196977000Y-94361000D03*
D12*
X195707000Y-96901000D03*
X205867000Y-96901000D03*
D10*
X184277000Y-91821000D03*
D11*
X181737000Y-96901000D03*
D10*
X177927000Y-94361000D03*
D12*
X176657000Y-96901000D03*
X186817000Y-96901000D03*
D10*
X165227000Y-91821000D03*
D11*
X162687000Y-96901000D03*
D10*
X158877000Y-94361000D03*
D12*
X157607000Y-96901000D03*
X167767000Y-96901000D03*
D10*
X146177000Y-91821000D03*
D11*
X143637000Y-96901000D03*
D10*
X139827000Y-94361000D03*
D12*
X138557000Y-96901000D03*
X148717000Y-96901000D03*
D10*
X127127000Y-91821000D03*
D11*
X124587000Y-96901000D03*
D10*
X120777000Y-94361000D03*
D12*
X119507000Y-96901000D03*
X129667000Y-96901000D03*
D10*
X108077000Y-91821000D03*
D11*
X105537000Y-96901000D03*
D10*
X101727000Y-94361000D03*
D12*
X100457000Y-96901000D03*
X110617000Y-96901000D03*
D10*
X89027000Y-91821000D03*
D11*
X86487000Y-96901000D03*
D10*
X82677000Y-94361000D03*
D12*
X81407000Y-96901000D03*
X91567000Y-96901000D03*
D10*
X69977000Y-91821000D03*
D11*
X67437000Y-96901000D03*
D10*
X63627000Y-94361000D03*
D12*
X62357000Y-96901000D03*
X72517000Y-96901000D03*
D10*
X350964500Y-72771000D03*
D11*
X348424500Y-77851000D03*
D10*
X344614500Y-75311000D03*
D12*
X343344500Y-77851000D03*
X353504500Y-77851000D03*
D10*
X327152000Y-72771000D03*
D11*
X324612000Y-77851000D03*
D10*
X320802000Y-75311000D03*
D12*
X319532000Y-77851000D03*
X329692000Y-77851000D03*
D10*
X308102000Y-72771000D03*
D11*
X305562000Y-77851000D03*
D10*
X301752000Y-75311000D03*
D12*
X300482000Y-77851000D03*
X310642000Y-77851000D03*
D10*
X289052000Y-72771000D03*
D11*
X286512000Y-77851000D03*
D10*
X282702000Y-75311000D03*
D12*
X281432000Y-77851000D03*
X291592000Y-77851000D03*
D10*
X270002000Y-72771000D03*
D11*
X267462000Y-77851000D03*
D10*
X263652000Y-75311000D03*
D12*
X262382000Y-77851000D03*
X272542000Y-77851000D03*
D10*
X250952000Y-72771000D03*
D11*
X248412000Y-77851000D03*
D10*
X244602000Y-75311000D03*
D12*
X243332000Y-77851000D03*
X253492000Y-77851000D03*
D10*
X231902000Y-72771000D03*
D11*
X229362000Y-77851000D03*
D10*
X225552000Y-75311000D03*
D12*
X224282000Y-77851000D03*
X234442000Y-77851000D03*
D10*
X212852000Y-72771000D03*
D11*
X210312000Y-77851000D03*
D10*
X206502000Y-75311000D03*
D12*
X205232000Y-77851000D03*
X215392000Y-77851000D03*
D10*
X193802000Y-72771000D03*
D11*
X191262000Y-77851000D03*
D10*
X187452000Y-75311000D03*
D12*
X186182000Y-77851000D03*
X196342000Y-77851000D03*
D10*
X174752000Y-72771000D03*
D11*
X172212000Y-77851000D03*
D10*
X168402000Y-75311000D03*
D12*
X167132000Y-77851000D03*
X177292000Y-77851000D03*
D10*
X136652000Y-72771000D03*
D11*
X134112000Y-77851000D03*
D10*
X130302000Y-75311000D03*
D12*
X129032000Y-77851000D03*
X139192000Y-77851000D03*
D10*
X117602000Y-72771000D03*
D11*
X115062000Y-77851000D03*
D10*
X111252000Y-75311000D03*
D12*
X109982000Y-77851000D03*
X120142000Y-77851000D03*
D24*
X84577100Y-81215500D03*
X84577100Y-82165500D03*
X84577100Y-80265500D03*
X82377100Y-80265500D03*
X82377100Y-81215500D03*
X82377100Y-82165500D03*
D25*
X79391000Y-143764000D03*
X81391000Y-144714000D03*
X81391000Y-142814000D03*
D26*
X86305750Y-74015500D03*
X81305750Y-74015500D03*
D27*
X87680750Y-71265500D03*
X79930750Y-71265500D03*
D28*
X87530750Y-75065500D03*
X80080750Y-75065500D03*
D29*
X85105750Y-75115500D03*
X84455750Y-75115500D03*
X83805750Y-75115500D03*
X83155750Y-75115500D03*
X82505750Y-75115500D03*
D30*
X105537000Y-73465000D03*
D31*
X317832000Y-116461000D03*
X186499500Y-135271000D03*
X79678250Y-173141000D03*
X340942000Y-144126000D03*
X248210750Y-173654000D03*
X210312000Y-87956000D03*
X83844000Y-116078000D03*
G36*
G01*
X147626500Y-165453750D02*
X149126500Y-165453750D01*
G75*
G02*
X149326500Y-165653750I0J-200000D01*
G01*
X149326500Y-166153750D01*
G75*
G02*
X149126500Y-166353750I-200000J0D01*
G01*
X147626500Y-166353750D01*
G75*
G02*
X147426500Y-166153750I0J200000D01*
G01*
X147426500Y-165653750D01*
G75*
G02*
X147626500Y-165453750I200000J0D01*
G01*
G37*
G36*
G01*
X147626500Y-166253750D02*
X149126500Y-166253750D01*
G75*
G02*
X149326500Y-166453750I0J-200000D01*
G01*
X149326500Y-166953750D01*
G75*
G02*
X149126500Y-167153750I-200000J0D01*
G01*
X147626500Y-167153750D01*
G75*
G02*
X147426500Y-166953750I0J200000D01*
G01*
X147426500Y-166453750D01*
G75*
G02*
X147626500Y-166253750I200000J0D01*
G01*
G37*
G36*
G01*
X147626500Y-167053750D02*
X149126500Y-167053750D01*
G75*
G02*
X149326500Y-167253750I0J-200000D01*
G01*
X149326500Y-167753750D01*
G75*
G02*
X149126500Y-167953750I-200000J0D01*
G01*
X147626500Y-167953750D01*
G75*
G02*
X147426500Y-167753750I0J200000D01*
G01*
X147426500Y-167253750D01*
G75*
G02*
X147626500Y-167053750I200000J0D01*
G01*
G37*
G36*
G01*
X147626500Y-167853750D02*
X149126500Y-167853750D01*
G75*
G02*
X149326500Y-168053750I0J-200000D01*
G01*
X149326500Y-168553750D01*
G75*
G02*
X149126500Y-168753750I-200000J0D01*
G01*
X147626500Y-168753750D01*
G75*
G02*
X147426500Y-168553750I0J200000D01*
G01*
X147426500Y-168053750D01*
G75*
G02*
X147626500Y-167853750I200000J0D01*
G01*
G37*
G36*
G01*
X147626500Y-168653750D02*
X149126500Y-168653750D01*
G75*
G02*
X149326500Y-168853750I0J-200000D01*
G01*
X149326500Y-169353750D01*
G75*
G02*
X149126500Y-169553750I-200000J0D01*
G01*
X147626500Y-169553750D01*
G75*
G02*
X147426500Y-169353750I0J200000D01*
G01*
X147426500Y-168853750D01*
G75*
G02*
X147626500Y-168653750I200000J0D01*
G01*
G37*
G36*
G01*
X147626500Y-169453750D02*
X149126500Y-169453750D01*
G75*
G02*
X149326500Y-169653750I0J-200000D01*
G01*
X149326500Y-170153750D01*
G75*
G02*
X149126500Y-170353750I-200000J0D01*
G01*
X147626500Y-170353750D01*
G75*
G02*
X147426500Y-170153750I0J200000D01*
G01*
X147426500Y-169653750D01*
G75*
G02*
X147626500Y-169453750I200000J0D01*
G01*
G37*
G36*
G01*
X147626500Y-170253750D02*
X149126500Y-170253750D01*
G75*
G02*
X149326500Y-170453750I0J-200000D01*
G01*
X149326500Y-170953750D01*
G75*
G02*
X149126500Y-171153750I-200000J0D01*
G01*
X147626500Y-171153750D01*
G75*
G02*
X147426500Y-170953750I0J200000D01*
G01*
X147426500Y-170453750D01*
G75*
G02*
X147626500Y-170253750I200000J0D01*
G01*
G37*
G36*
G01*
X147626500Y-171053750D02*
X149126500Y-171053750D01*
G75*
G02*
X149326500Y-171253750I0J-200000D01*
G01*
X149326500Y-171753750D01*
G75*
G02*
X149126500Y-171953750I-200000J0D01*
G01*
X147626500Y-171953750D01*
G75*
G02*
X147426500Y-171753750I0J200000D01*
G01*
X147426500Y-171253750D01*
G75*
G02*
X147626500Y-171053750I200000J0D01*
G01*
G37*
G36*
G01*
X147626500Y-171853750D02*
X149126500Y-171853750D01*
G75*
G02*
X149326500Y-172053750I0J-200000D01*
G01*
X149326500Y-172553750D01*
G75*
G02*
X149126500Y-172753750I-200000J0D01*
G01*
X147626500Y-172753750D01*
G75*
G02*
X147426500Y-172553750I0J200000D01*
G01*
X147426500Y-172053750D01*
G75*
G02*
X147626500Y-171853750I200000J0D01*
G01*
G37*
G36*
G01*
X147626500Y-172653750D02*
X149126500Y-172653750D01*
G75*
G02*
X149326500Y-172853750I0J-200000D01*
G01*
X149326500Y-173353750D01*
G75*
G02*
X149126500Y-173553750I-200000J0D01*
G01*
X147626500Y-173553750D01*
G75*
G02*
X147426500Y-173353750I0J200000D01*
G01*
X147426500Y-172853750D01*
G75*
G02*
X147626500Y-172653750I200000J0D01*
G01*
G37*
G36*
G01*
X147626500Y-173453750D02*
X149126500Y-173453750D01*
G75*
G02*
X149326500Y-173653750I0J-200000D01*
G01*
X149326500Y-174153750D01*
G75*
G02*
X149126500Y-174353750I-200000J0D01*
G01*
X147626500Y-174353750D01*
G75*
G02*
X147426500Y-174153750I0J200000D01*
G01*
X147426500Y-173653750D01*
G75*
G02*
X147626500Y-173453750I200000J0D01*
G01*
G37*
G36*
G01*
X150026500Y-174853750D02*
X150526500Y-174853750D01*
G75*
G02*
X150726500Y-175053750I0J-200000D01*
G01*
X150726500Y-176553750D01*
G75*
G02*
X150526500Y-176753750I-200000J0D01*
G01*
X150026500Y-176753750D01*
G75*
G02*
X149826500Y-176553750I0J200000D01*
G01*
X149826500Y-175053750D01*
G75*
G02*
X150026500Y-174853750I200000J0D01*
G01*
G37*
G36*
G01*
X150826500Y-174853750D02*
X151326500Y-174853750D01*
G75*
G02*
X151526500Y-175053750I0J-200000D01*
G01*
X151526500Y-176553750D01*
G75*
G02*
X151326500Y-176753750I-200000J0D01*
G01*
X150826500Y-176753750D01*
G75*
G02*
X150626500Y-176553750I0J200000D01*
G01*
X150626500Y-175053750D01*
G75*
G02*
X150826500Y-174853750I200000J0D01*
G01*
G37*
G36*
G01*
X151626500Y-174853750D02*
X152126500Y-174853750D01*
G75*
G02*
X152326500Y-175053750I0J-200000D01*
G01*
X152326500Y-176553750D01*
G75*
G02*
X152126500Y-176753750I-200000J0D01*
G01*
X151626500Y-176753750D01*
G75*
G02*
X151426500Y-176553750I0J200000D01*
G01*
X151426500Y-175053750D01*
G75*
G02*
X151626500Y-174853750I200000J0D01*
G01*
G37*
G36*
G01*
X152426500Y-174853750D02*
X152926500Y-174853750D01*
G75*
G02*
X153126500Y-175053750I0J-200000D01*
G01*
X153126500Y-176553750D01*
G75*
G02*
X152926500Y-176753750I-200000J0D01*
G01*
X152426500Y-176753750D01*
G75*
G02*
X152226500Y-176553750I0J200000D01*
G01*
X152226500Y-175053750D01*
G75*
G02*
X152426500Y-174853750I200000J0D01*
G01*
G37*
G36*
G01*
X153226500Y-174853750D02*
X153726500Y-174853750D01*
G75*
G02*
X153926500Y-175053750I0J-200000D01*
G01*
X153926500Y-176553750D01*
G75*
G02*
X153726500Y-176753750I-200000J0D01*
G01*
X153226500Y-176753750D01*
G75*
G02*
X153026500Y-176553750I0J200000D01*
G01*
X153026500Y-175053750D01*
G75*
G02*
X153226500Y-174853750I200000J0D01*
G01*
G37*
G36*
G01*
X154026500Y-174853750D02*
X154526500Y-174853750D01*
G75*
G02*
X154726500Y-175053750I0J-200000D01*
G01*
X154726500Y-176553750D01*
G75*
G02*
X154526500Y-176753750I-200000J0D01*
G01*
X154026500Y-176753750D01*
G75*
G02*
X153826500Y-176553750I0J200000D01*
G01*
X153826500Y-175053750D01*
G75*
G02*
X154026500Y-174853750I200000J0D01*
G01*
G37*
G36*
G01*
X154826500Y-174853750D02*
X155326500Y-174853750D01*
G75*
G02*
X155526500Y-175053750I0J-200000D01*
G01*
X155526500Y-176553750D01*
G75*
G02*
X155326500Y-176753750I-200000J0D01*
G01*
X154826500Y-176753750D01*
G75*
G02*
X154626500Y-176553750I0J200000D01*
G01*
X154626500Y-175053750D01*
G75*
G02*
X154826500Y-174853750I200000J0D01*
G01*
G37*
G36*
G01*
X155626500Y-174853750D02*
X156126500Y-174853750D01*
G75*
G02*
X156326500Y-175053750I0J-200000D01*
G01*
X156326500Y-176553750D01*
G75*
G02*
X156126500Y-176753750I-200000J0D01*
G01*
X155626500Y-176753750D01*
G75*
G02*
X155426500Y-176553750I0J200000D01*
G01*
X155426500Y-175053750D01*
G75*
G02*
X155626500Y-174853750I200000J0D01*
G01*
G37*
G36*
G01*
X156426500Y-174853750D02*
X156926500Y-174853750D01*
G75*
G02*
X157126500Y-175053750I0J-200000D01*
G01*
X157126500Y-176553750D01*
G75*
G02*
X156926500Y-176753750I-200000J0D01*
G01*
X156426500Y-176753750D01*
G75*
G02*
X156226500Y-176553750I0J200000D01*
G01*
X156226500Y-175053750D01*
G75*
G02*
X156426500Y-174853750I200000J0D01*
G01*
G37*
G36*
G01*
X157226500Y-174853750D02*
X157726500Y-174853750D01*
G75*
G02*
X157926500Y-175053750I0J-200000D01*
G01*
X157926500Y-176553750D01*
G75*
G02*
X157726500Y-176753750I-200000J0D01*
G01*
X157226500Y-176753750D01*
G75*
G02*
X157026500Y-176553750I0J200000D01*
G01*
X157026500Y-175053750D01*
G75*
G02*
X157226500Y-174853750I200000J0D01*
G01*
G37*
G36*
G01*
X158026500Y-174853750D02*
X158526500Y-174853750D01*
G75*
G02*
X158726500Y-175053750I0J-200000D01*
G01*
X158726500Y-176553750D01*
G75*
G02*
X158526500Y-176753750I-200000J0D01*
G01*
X158026500Y-176753750D01*
G75*
G02*
X157826500Y-176553750I0J200000D01*
G01*
X157826500Y-175053750D01*
G75*
G02*
X158026500Y-174853750I200000J0D01*
G01*
G37*
G36*
G01*
X159426500Y-173453750D02*
X160926500Y-173453750D01*
G75*
G02*
X161126500Y-173653750I0J-200000D01*
G01*
X161126500Y-174153750D01*
G75*
G02*
X160926500Y-174353750I-200000J0D01*
G01*
X159426500Y-174353750D01*
G75*
G02*
X159226500Y-174153750I0J200000D01*
G01*
X159226500Y-173653750D01*
G75*
G02*
X159426500Y-173453750I200000J0D01*
G01*
G37*
G36*
G01*
X159426500Y-172653750D02*
X160926500Y-172653750D01*
G75*
G02*
X161126500Y-172853750I0J-200000D01*
G01*
X161126500Y-173353750D01*
G75*
G02*
X160926500Y-173553750I-200000J0D01*
G01*
X159426500Y-173553750D01*
G75*
G02*
X159226500Y-173353750I0J200000D01*
G01*
X159226500Y-172853750D01*
G75*
G02*
X159426500Y-172653750I200000J0D01*
G01*
G37*
G36*
G01*
X159426500Y-171853750D02*
X160926500Y-171853750D01*
G75*
G02*
X161126500Y-172053750I0J-200000D01*
G01*
X161126500Y-172553750D01*
G75*
G02*
X160926500Y-172753750I-200000J0D01*
G01*
X159426500Y-172753750D01*
G75*
G02*
X159226500Y-172553750I0J200000D01*
G01*
X159226500Y-172053750D01*
G75*
G02*
X159426500Y-171853750I200000J0D01*
G01*
G37*
G36*
G01*
X159426500Y-171053750D02*
X160926500Y-171053750D01*
G75*
G02*
X161126500Y-171253750I0J-200000D01*
G01*
X161126500Y-171753750D01*
G75*
G02*
X160926500Y-171953750I-200000J0D01*
G01*
X159426500Y-171953750D01*
G75*
G02*
X159226500Y-171753750I0J200000D01*
G01*
X159226500Y-171253750D01*
G75*
G02*
X159426500Y-171053750I200000J0D01*
G01*
G37*
G36*
G01*
X159426500Y-170253750D02*
X160926500Y-170253750D01*
G75*
G02*
X161126500Y-170453750I0J-200000D01*
G01*
X161126500Y-170953750D01*
G75*
G02*
X160926500Y-171153750I-200000J0D01*
G01*
X159426500Y-171153750D01*
G75*
G02*
X159226500Y-170953750I0J200000D01*
G01*
X159226500Y-170453750D01*
G75*
G02*
X159426500Y-170253750I200000J0D01*
G01*
G37*
G36*
G01*
X159426500Y-169453750D02*
X160926500Y-169453750D01*
G75*
G02*
X161126500Y-169653750I0J-200000D01*
G01*
X161126500Y-170153750D01*
G75*
G02*
X160926500Y-170353750I-200000J0D01*
G01*
X159426500Y-170353750D01*
G75*
G02*
X159226500Y-170153750I0J200000D01*
G01*
X159226500Y-169653750D01*
G75*
G02*
X159426500Y-169453750I200000J0D01*
G01*
G37*
G36*
G01*
X159426500Y-168653750D02*
X160926500Y-168653750D01*
G75*
G02*
X161126500Y-168853750I0J-200000D01*
G01*
X161126500Y-169353750D01*
G75*
G02*
X160926500Y-169553750I-200000J0D01*
G01*
X159426500Y-169553750D01*
G75*
G02*
X159226500Y-169353750I0J200000D01*
G01*
X159226500Y-168853750D01*
G75*
G02*
X159426500Y-168653750I200000J0D01*
G01*
G37*
G36*
G01*
X159426500Y-167853750D02*
X160926500Y-167853750D01*
G75*
G02*
X161126500Y-168053750I0J-200000D01*
G01*
X161126500Y-168553750D01*
G75*
G02*
X160926500Y-168753750I-200000J0D01*
G01*
X159426500Y-168753750D01*
G75*
G02*
X159226500Y-168553750I0J200000D01*
G01*
X159226500Y-168053750D01*
G75*
G02*
X159426500Y-167853750I200000J0D01*
G01*
G37*
G36*
G01*
X159426500Y-167053750D02*
X160926500Y-167053750D01*
G75*
G02*
X161126500Y-167253750I0J-200000D01*
G01*
X161126500Y-167753750D01*
G75*
G02*
X160926500Y-167953750I-200000J0D01*
G01*
X159426500Y-167953750D01*
G75*
G02*
X159226500Y-167753750I0J200000D01*
G01*
X159226500Y-167253750D01*
G75*
G02*
X159426500Y-167053750I200000J0D01*
G01*
G37*
G36*
G01*
X159426500Y-166253750D02*
X160926500Y-166253750D01*
G75*
G02*
X161126500Y-166453750I0J-200000D01*
G01*
X161126500Y-166953750D01*
G75*
G02*
X160926500Y-167153750I-200000J0D01*
G01*
X159426500Y-167153750D01*
G75*
G02*
X159226500Y-166953750I0J200000D01*
G01*
X159226500Y-166453750D01*
G75*
G02*
X159426500Y-166253750I200000J0D01*
G01*
G37*
G36*
G01*
X159426500Y-165453750D02*
X160926500Y-165453750D01*
G75*
G02*
X161126500Y-165653750I0J-200000D01*
G01*
X161126500Y-166153750D01*
G75*
G02*
X160926500Y-166353750I-200000J0D01*
G01*
X159426500Y-166353750D01*
G75*
G02*
X159226500Y-166153750I0J200000D01*
G01*
X159226500Y-165653750D01*
G75*
G02*
X159426500Y-165453750I200000J0D01*
G01*
G37*
G36*
G01*
X158026500Y-163053750D02*
X158526500Y-163053750D01*
G75*
G02*
X158726500Y-163253750I0J-200000D01*
G01*
X158726500Y-164753750D01*
G75*
G02*
X158526500Y-164953750I-200000J0D01*
G01*
X158026500Y-164953750D01*
G75*
G02*
X157826500Y-164753750I0J200000D01*
G01*
X157826500Y-163253750D01*
G75*
G02*
X158026500Y-163053750I200000J0D01*
G01*
G37*
G36*
G01*
X157226500Y-163053750D02*
X157726500Y-163053750D01*
G75*
G02*
X157926500Y-163253750I0J-200000D01*
G01*
X157926500Y-164753750D01*
G75*
G02*
X157726500Y-164953750I-200000J0D01*
G01*
X157226500Y-164953750D01*
G75*
G02*
X157026500Y-164753750I0J200000D01*
G01*
X157026500Y-163253750D01*
G75*
G02*
X157226500Y-163053750I200000J0D01*
G01*
G37*
G36*
G01*
X156426500Y-163053750D02*
X156926500Y-163053750D01*
G75*
G02*
X157126500Y-163253750I0J-200000D01*
G01*
X157126500Y-164753750D01*
G75*
G02*
X156926500Y-164953750I-200000J0D01*
G01*
X156426500Y-164953750D01*
G75*
G02*
X156226500Y-164753750I0J200000D01*
G01*
X156226500Y-163253750D01*
G75*
G02*
X156426500Y-163053750I200000J0D01*
G01*
G37*
G36*
G01*
X155626500Y-163053750D02*
X156126500Y-163053750D01*
G75*
G02*
X156326500Y-163253750I0J-200000D01*
G01*
X156326500Y-164753750D01*
G75*
G02*
X156126500Y-164953750I-200000J0D01*
G01*
X155626500Y-164953750D01*
G75*
G02*
X155426500Y-164753750I0J200000D01*
G01*
X155426500Y-163253750D01*
G75*
G02*
X155626500Y-163053750I200000J0D01*
G01*
G37*
G36*
G01*
X154826500Y-163053750D02*
X155326500Y-163053750D01*
G75*
G02*
X155526500Y-163253750I0J-200000D01*
G01*
X155526500Y-164753750D01*
G75*
G02*
X155326500Y-164953750I-200000J0D01*
G01*
X154826500Y-164953750D01*
G75*
G02*
X154626500Y-164753750I0J200000D01*
G01*
X154626500Y-163253750D01*
G75*
G02*
X154826500Y-163053750I200000J0D01*
G01*
G37*
G36*
G01*
X154026500Y-163053750D02*
X154526500Y-163053750D01*
G75*
G02*
X154726500Y-163253750I0J-200000D01*
G01*
X154726500Y-164753750D01*
G75*
G02*
X154526500Y-164953750I-200000J0D01*
G01*
X154026500Y-164953750D01*
G75*
G02*
X153826500Y-164753750I0J200000D01*
G01*
X153826500Y-163253750D01*
G75*
G02*
X154026500Y-163053750I200000J0D01*
G01*
G37*
G36*
G01*
X153226500Y-163053750D02*
X153726500Y-163053750D01*
G75*
G02*
X153926500Y-163253750I0J-200000D01*
G01*
X153926500Y-164753750D01*
G75*
G02*
X153726500Y-164953750I-200000J0D01*
G01*
X153226500Y-164953750D01*
G75*
G02*
X153026500Y-164753750I0J200000D01*
G01*
X153026500Y-163253750D01*
G75*
G02*
X153226500Y-163053750I200000J0D01*
G01*
G37*
G36*
G01*
X152426500Y-163053750D02*
X152926500Y-163053750D01*
G75*
G02*
X153126500Y-163253750I0J-200000D01*
G01*
X153126500Y-164753750D01*
G75*
G02*
X152926500Y-164953750I-200000J0D01*
G01*
X152426500Y-164953750D01*
G75*
G02*
X152226500Y-164753750I0J200000D01*
G01*
X152226500Y-163253750D01*
G75*
G02*
X152426500Y-163053750I200000J0D01*
G01*
G37*
G36*
G01*
X151626500Y-163053750D02*
X152126500Y-163053750D01*
G75*
G02*
X152326500Y-163253750I0J-200000D01*
G01*
X152326500Y-164753750D01*
G75*
G02*
X152126500Y-164953750I-200000J0D01*
G01*
X151626500Y-164953750D01*
G75*
G02*
X151426500Y-164753750I0J200000D01*
G01*
X151426500Y-163253750D01*
G75*
G02*
X151626500Y-163053750I200000J0D01*
G01*
G37*
G36*
G01*
X150826500Y-163053750D02*
X151326500Y-163053750D01*
G75*
G02*
X151526500Y-163253750I0J-200000D01*
G01*
X151526500Y-164753750D01*
G75*
G02*
X151326500Y-164953750I-200000J0D01*
G01*
X150826500Y-164953750D01*
G75*
G02*
X150626500Y-164753750I0J200000D01*
G01*
X150626500Y-163253750D01*
G75*
G02*
X150826500Y-163053750I200000J0D01*
G01*
G37*
G36*
G01*
X150026500Y-163053750D02*
X150526500Y-163053750D01*
G75*
G02*
X150726500Y-163253750I0J-200000D01*
G01*
X150726500Y-164753750D01*
G75*
G02*
X150526500Y-164953750I-200000J0D01*
G01*
X150026500Y-164953750D01*
G75*
G02*
X149826500Y-164753750I0J200000D01*
G01*
X149826500Y-163253750D01*
G75*
G02*
X150026500Y-163053750I200000J0D01*
G01*
G37*
G36*
G01*
X78728850Y-82314700D02*
X77478850Y-82314700D01*
G75*
G02*
X77228850Y-82064700I0J250000D01*
G01*
X77228850Y-81314700D01*
G75*
G02*
X77478850Y-81064700I250000J0D01*
G01*
X78728850Y-81064700D01*
G75*
G02*
X78978850Y-81314700I0J-250000D01*
G01*
X78978850Y-82064700D01*
G75*
G02*
X78728850Y-82314700I-250000J0D01*
G01*
G37*
G36*
G01*
X78728850Y-85114700D02*
X77478850Y-85114700D01*
G75*
G02*
X77228850Y-84864700I0J250000D01*
G01*
X77228850Y-84114700D01*
G75*
G02*
X77478850Y-83864700I250000J0D01*
G01*
X78728850Y-83864700D01*
G75*
G02*
X78978850Y-84114700I0J-250000D01*
G01*
X78978850Y-84864700D01*
G75*
G02*
X78728850Y-85114700I-250000J0D01*
G01*
G37*
M02*
