M48
; DRILL file {KiCad (5.1.5)-3} date 2/24/2020 01:02:13
; FORMAT={-:-/ absolute / inch / decimal}
; #@! TF.CreationDate,2020-02-24T01:02:13-06:00
; #@! TF.GenerationSoftware,Kicad,Pcbnew,(5.1.5)-3
; #@! TF.FileFunction,NonPlated,1,2,NPTH
FMAT,2
INCH
T1C0.0315
T2C0.0689
T3C0.1181
T4C0.1570
T5C0.2362
%
G90
G05
T1
X3.201Y-2.914
X3.3979Y-2.914
T2
X9.0175Y-5.315
X9.4175Y-5.315
X13.705Y-6.065
X14.105Y-6.065
X11.9238Y-6.065
X12.3238Y-6.065
X3.58Y-3.065
X3.98Y-3.065
X12.58Y-3.065
X12.98Y-3.065
X6.955Y-3.815
X7.355Y-3.815
X6.205Y-3.815
X6.605Y-3.815
X8.83Y-4.565
X9.23Y-4.565
X5.2675Y-5.315
X5.6675Y-5.315
X7.2375Y-6.815
X7.6375Y-6.815
X10.705Y-6.815
X11.105Y-6.815
X9.955Y-6.815
X10.355Y-6.815
X10.8925Y-6.065
X11.2925Y-6.065
X13.705Y-5.315
X14.105Y-5.315
X5.6425Y-6.065
X6.0425Y-6.065
X7.705Y-3.815
X8.105Y-3.815
X13.705Y-3.815
X14.105Y-3.815
X9.205Y-3.815
X9.605Y-3.815
X4.33Y-3.065
X4.73Y-3.065
X12.7675Y-4.565
X13.1675Y-4.565
X6.7675Y-5.315
X7.1675Y-5.315
X2.5488Y-6.815
X2.9487Y-6.815
X12.58Y-3.815
X12.98Y-3.815
X5.83Y-4.565
X6.23Y-4.565
X9.7675Y-5.315
X10.1675Y-5.315
X8.6425Y-6.065
X9.0425Y-6.065
X7.1425Y-6.065
X7.5425Y-6.065
X11.83Y-3.065
X12.23Y-3.065
X8.455Y-3.815
X8.855Y-3.815
X4.705Y-3.815
X5.105Y-3.815
X11.455Y-3.815
X11.855Y-3.815
X7.33Y-3.065
X7.73Y-3.065
X6.0175Y-5.315
X6.4175Y-5.315
X4.33Y-4.565
X4.73Y-4.565
X3.4863Y-6.815
X3.8862Y-6.815
X11.455Y-6.815
X11.855Y-6.815
X10.5175Y-5.315
X10.9175Y-5.315
X11.2675Y-5.315
X11.6675Y-5.315
X3.205Y-3.815
X3.605Y-3.815
X10.33Y-3.065
X10.73Y-3.065
X5.455Y-3.815
X5.855Y-3.815
X10.705Y-3.815
X11.105Y-3.815
X13.705Y-4.565
X14.105Y-4.565
X8.08Y-4.565
X8.48Y-4.565
X5.08Y-4.565
X5.48Y-4.565
X12.4863Y-5.315
X12.8863Y-5.315
X2.9238Y-6.065
X3.3237Y-6.065
X4.1425Y-6.065
X4.5425Y-6.065
X12.955Y-6.065
X13.355Y-6.065
X6.58Y-3.065
X6.98Y-3.065
X2.455Y-3.815
X2.855Y-3.815
X13.5175Y-3.065
X13.9175Y-3.065
X9.955Y-3.815
X10.355Y-3.815
X3.7675Y-5.315
X4.1675Y-5.315
X10.33Y-4.565
X10.73Y-4.565
X9.58Y-4.565
X9.98Y-4.565
X12.205Y-6.815
X12.605Y-6.815
X7.33Y-4.565
X7.73Y-4.565
X9.3925Y-6.065
X9.7925Y-6.065
X2.6425Y-3.065
X3.0425Y-3.065
X4.8925Y-6.065
X5.2925Y-6.065
X3.58Y-4.565
X3.98Y-4.565
X8.83Y-3.065
X9.23Y-3.065
X2.6425Y-4.565
X3.0425Y-4.565
X6.58Y-4.565
X6.98Y-4.565
X11.08Y-4.565
X11.48Y-4.565
X5.83Y-3.065
X6.23Y-3.065
X11.83Y-4.565
X12.23Y-4.565
X4.4238Y-6.815
X4.8237Y-6.815
X2.7363Y-5.315
X3.1362Y-5.315
X7.8925Y-6.065
X8.2925Y-6.065
X10.1425Y-6.065
X10.5425Y-6.065
X6.3925Y-6.065
X6.7925Y-6.065
X8.08Y-3.065
X8.48Y-3.065
X5.08Y-3.065
X5.48Y-3.065
X9.58Y-3.065
X9.98Y-3.065
X11.08Y-3.065
X11.48Y-3.065
X3.955Y-3.815
X4.355Y-3.815
X4.5175Y-5.315
X4.9175Y-5.315
X7.5175Y-5.315
X7.9175Y-5.315
X13.705Y-6.815
X14.105Y-6.815
X8.2675Y-5.315
X8.6675Y-5.315
X12.955Y-6.815
X13.355Y-6.815
T3
X4.155Y-2.8923
T4
X5.8425Y-6.065
X7.905Y-3.815
X13.905Y-3.815
X9.405Y-3.815
X4.53Y-3.065
X12.9675Y-4.565
X6.9675Y-5.315
X2.7487Y-6.815
X12.78Y-3.815
X6.03Y-4.565
X9.9675Y-5.315
X8.8425Y-6.065
X7.3425Y-6.065
X12.03Y-3.065
X8.655Y-3.815
X4.905Y-3.815
X11.655Y-3.815
X7.53Y-3.065
X6.2175Y-5.315
X4.53Y-4.565
X3.6862Y-6.815
X11.655Y-6.815
X10.7175Y-5.315
X11.4675Y-5.315
X3.405Y-3.815
X10.53Y-3.065
X5.655Y-3.815
X10.905Y-3.815
X13.905Y-4.565
X8.28Y-4.565
X5.28Y-4.565
X12.6862Y-5.315
X3.1237Y-6.065
X4.3425Y-6.065
X13.155Y-6.065
X6.78Y-3.065
X2.655Y-3.815
X13.7175Y-3.065
X10.155Y-3.815
X3.9675Y-5.315
X10.53Y-4.565
X9.78Y-4.565
X12.405Y-6.815
X7.53Y-4.565
X9.5925Y-6.065
X2.8425Y-3.065
X5.0925Y-6.065
X3.78Y-4.565
X9.03Y-3.065
X2.8425Y-4.565
X6.78Y-4.565
X11.28Y-4.565
X6.03Y-3.065
X12.03Y-4.565
X4.6238Y-6.815
X2.9362Y-5.315
X8.0925Y-6.065
X10.3425Y-6.065
X6.5925Y-6.065
X8.28Y-3.065
X5.28Y-3.065
X9.78Y-3.065
X11.28Y-3.065
X4.155Y-3.815
X4.7175Y-5.315
X7.7175Y-5.315
X13.905Y-6.815
X8.4675Y-5.315
X13.155Y-6.815
X9.2175Y-5.315
X13.905Y-6.065
X12.1237Y-6.065
X3.78Y-3.065
X12.78Y-3.065
X7.155Y-3.815
X6.405Y-3.815
X9.03Y-4.565
X5.4675Y-5.315
X7.4375Y-6.815
X10.905Y-6.815
X10.155Y-6.815
X11.0925Y-6.065
X13.905Y-5.315
T5
X13.4229Y-5.6743
X3.1369Y-6.8166
X12.5131Y-4.5851
X7.3425Y-5.3256
X8.28Y-3.4628
X3.3009Y-4.57
X9.7721Y-6.8368
T0
M30
