M48
; DRILL file {KiCad 7.0.10-7.0.10~ubuntu22.04.1} date Fri 19 Jan 2024 04:19:04 PM CST
; FORMAT={-:-/ absolute / inch / decimal}
; #@! TF.CreationDate,2024-01-19T16:19:04-06:00
; #@! TF.GenerationSoftware,Kicad,Pcbnew,7.0.10-7.0.10~ubuntu22.04.1
; #@! TF.FileFunction,NonPlated,1,2,NPTH
FMAT,2
INCH
; #@! TA.AperFunction,NonPlated,NPTH,ComponentDrill
T1C0.0276
; #@! TA.AperFunction,NonPlated,NPTH,ComponentDrill
T2C0.0689
; #@! TA.AperFunction,NonPlated,NPTH,ComponentDrill
T3C0.1200
; #@! TA.AperFunction,NonPlated,NPTH,ComponentDrill
T4C0.1570
; #@! TA.AperFunction,NonPlated,NPTH,ComponentDrill
T5C0.2362
%
G90
G05
T1
X3.2237Y-2.8817
X3.3812Y-2.8817
T2
X2.455Y-3.815
X2.5488Y-5.315
X2.5488Y-6.815
X2.549Y-6.0644
X2.6425Y-3.065
X2.6425Y-4.565
X2.7363Y-5.315
X2.855Y-3.815
X2.924Y-6.0644
X2.9487Y-5.315
X2.9487Y-6.815
X2.949Y-6.0644
X3.0425Y-3.065
X3.0425Y-4.565
X3.1362Y-5.315
X3.205Y-3.815
X3.324Y-6.0644
X3.3933Y-6.065
X3.4863Y-6.815
X3.58Y-3.065
X3.58Y-4.565
X3.605Y-3.815
X3.7675Y-5.315
X3.7933Y-6.065
X3.8862Y-6.815
X3.955Y-3.815
X3.98Y-3.065
X3.98Y-4.565
X4.1425Y-6.065
X4.1675Y-5.315
X4.33Y-3.065
X4.33Y-4.565
X4.355Y-3.815
X4.4238Y-6.815
X4.5175Y-5.315
X4.5425Y-6.065
X4.705Y-3.815
X4.73Y-3.065
X4.73Y-4.565
X4.8237Y-6.815
X4.8925Y-6.065
X4.9175Y-5.315
X5.08Y-3.065
X5.08Y-4.565
X5.105Y-3.815
X5.2675Y-5.315
X5.2925Y-6.065
X5.455Y-3.815
X5.48Y-3.065
X5.48Y-4.565
X5.6425Y-6.065
X5.6675Y-5.315
X5.83Y-3.065
X5.83Y-4.565
X5.855Y-3.815
X6.0175Y-5.315
X6.0425Y-6.065
X6.205Y-3.815
X6.23Y-3.065
X6.23Y-4.565
X6.3925Y-6.065
X6.4175Y-5.315
X6.58Y-3.065
X6.58Y-4.565
X6.605Y-3.815
X6.7675Y-5.315
X6.7925Y-6.065
X6.955Y-3.815
X6.98Y-3.065
X6.98Y-4.565
X7.1425Y-6.065
X7.1675Y-5.315
X7.2375Y-6.815
X7.33Y-3.065
X7.33Y-4.565
X7.355Y-3.815
X7.5175Y-5.315
X7.5425Y-6.065
X7.6375Y-6.815
X7.705Y-3.815
X7.73Y-3.065
X7.73Y-4.565
X7.8925Y-6.065
X7.9175Y-5.315
X8.08Y-3.065
X8.08Y-4.565
X8.105Y-3.815
X8.2675Y-5.315
X8.2925Y-6.065
X8.455Y-3.815
X8.48Y-3.065
X8.48Y-4.565
X8.6425Y-6.065
X8.6675Y-5.315
X8.83Y-3.065
X8.83Y-4.565
X8.855Y-3.815
X9.0175Y-5.315
X9.0425Y-6.065
X9.205Y-3.815
X9.23Y-3.065
X9.23Y-4.565
X9.3925Y-6.065
X9.4175Y-5.315
X9.58Y-3.065
X9.58Y-4.565
X9.605Y-3.815
X9.7675Y-5.315
X9.7925Y-6.065
X9.955Y-3.815
X9.955Y-6.815
X9.98Y-3.065
X9.98Y-4.565
X10.1425Y-6.065
X10.1675Y-5.315
X10.33Y-3.065
X10.33Y-4.565
X10.355Y-3.815
X10.355Y-6.815
X10.5175Y-5.315
X10.5425Y-6.065
X10.705Y-3.815
X10.705Y-6.815
X10.73Y-3.065
X10.73Y-4.565
X10.8925Y-6.065
X10.9175Y-5.315
X11.08Y-3.065
X11.08Y-4.565
X11.105Y-3.815
X11.105Y-6.815
X11.2675Y-5.315
X11.2925Y-6.065
X11.455Y-3.815
X11.455Y-6.815
X11.48Y-3.065
X11.48Y-4.565
X11.6675Y-5.315
X11.83Y-3.065
X11.83Y-4.565
X11.855Y-3.815
X11.855Y-6.815
X11.9238Y-6.065
X12.0166Y-5.3152
X12.205Y-6.815
X12.23Y-3.065
X12.23Y-4.565
X12.3238Y-6.065
X12.4166Y-5.3152
X12.4855Y-5.3152
X12.5799Y-3.815
X12.58Y-3.065
X12.605Y-6.815
X12.765Y-4.5656
X12.8605Y-4.9402
X12.8855Y-5.3152
X12.955Y-6.065
X12.955Y-6.815
X12.9799Y-3.815
X12.98Y-3.065
X13.165Y-4.5656
X13.2605Y-4.9402
X13.355Y-6.065
X13.355Y-6.815
X13.5175Y-3.065
X13.705Y-3.815
X13.705Y-4.565
X13.705Y-5.315
X13.705Y-6.065
X13.705Y-6.815
X13.9175Y-3.065
X14.105Y-3.815
X14.105Y-4.565
X14.105Y-5.315
X14.105Y-6.065
X14.105Y-6.815
T3
X2.6553Y-5.7894
X3.5928Y-5.7894
X5.469Y-7.09
X9.406Y-7.09
X12.2168Y-5.0402
X12.3111Y-3.54
X13.1543Y-5.0402
X13.2486Y-3.54
X13.3355Y-4.4702
X13.3355Y-5.4102
T4
X2.655Y-3.815
X2.6553Y-6.3894
X2.7487Y-5.315
X2.7487Y-6.815
X2.749Y-6.0644
X2.8425Y-3.065
X2.8425Y-4.565
X2.9362Y-5.315
X3.124Y-6.0644
X3.405Y-3.815
X3.5928Y-6.3894
X3.5933Y-6.065
X3.6862Y-6.815
X3.78Y-3.065
X3.78Y-4.565
X3.9675Y-5.315
X4.155Y-3.815
X4.3425Y-6.065
X4.53Y-3.065
X4.53Y-4.565
X4.6238Y-6.815
X4.7175Y-5.315
X4.905Y-3.815
X5.0925Y-6.065
X5.28Y-3.065
X5.28Y-4.565
X5.4675Y-5.315
X5.469Y-6.49
X5.655Y-3.815
X5.8425Y-6.065
X6.03Y-3.065
X6.03Y-4.565
X6.2175Y-5.315
X6.405Y-3.815
X6.5925Y-6.065
X6.78Y-3.065
X6.78Y-4.565
X6.9675Y-5.315
X7.155Y-3.815
X7.3425Y-6.065
X7.4375Y-6.815
X7.53Y-3.065
X7.53Y-4.565
X7.7175Y-5.315
X7.905Y-3.815
X8.0925Y-6.065
X8.28Y-3.065
X8.28Y-4.565
X8.4675Y-5.315
X8.655Y-3.815
X8.8425Y-6.065
X9.03Y-3.065
X9.03Y-4.565
X9.2175Y-5.315
X9.405Y-3.815
X9.406Y-6.49
X9.5925Y-6.065
X9.78Y-3.065
X9.78Y-4.565
X9.9675Y-5.315
X10.155Y-3.815
X10.155Y-6.815
X10.3425Y-6.065
X10.53Y-3.065
X10.53Y-4.565
X10.7175Y-5.315
X10.905Y-3.815
X10.905Y-6.815
X11.0925Y-6.065
X11.28Y-3.065
X11.28Y-4.565
X11.4675Y-5.315
X11.655Y-3.815
X11.655Y-6.815
X12.03Y-3.065
X12.03Y-4.565
X12.1237Y-6.065
X12.2166Y-5.3152
X12.2168Y-5.6402
X12.3111Y-4.14
X12.405Y-6.815
X12.6855Y-5.3152
X12.7355Y-4.4702
X12.7355Y-5.4102
X12.7799Y-3.815
X12.78Y-3.065
X12.965Y-4.5656
X13.0605Y-4.9402
X13.1543Y-5.6402
X13.155Y-6.065
X13.155Y-6.815
X13.2486Y-4.14
X13.7175Y-3.065
X13.905Y-3.815
X13.905Y-4.565
X13.905Y-5.315
X13.905Y-6.065
X13.905Y-6.815
T5
X3.1422Y-6.8101
X3.2997Y-4.566
X7.3425Y-5.315
X8.28Y-3.4439
X9.717Y-6.8298
X12.5123Y-4.566
X13.4178Y-5.6683
M30
