%TF.GenerationSoftware,KiCad,Pcbnew,9.0.8-9.0.8~ubuntu24.04.1*%
%TF.CreationDate,2026-04-22T11:21:01-05:00*%
%TF.ProjectId,bear_face_pcb,62656172-5f66-4616-9365-5f7063622e6b,rev?*%
%TF.SameCoordinates,Original*%
%TF.FileFunction,Soldermask,Bot*%
%TF.FilePolarity,Negative*%
%FSLAX46Y46*%
G04 Gerber Fmt 4.6, Leading zero omitted, Abs format (unit mm)*
G04 Created by KiCad (PCBNEW 9.0.8-9.0.8~ubuntu24.04.1) date 2026-04-22 11:21:01*
%MOMM*%
%LPD*%
G01*
G04 APERTURE LIST*
G04 Aperture macros list*
%AMRoundRect*
0 Rectangle with rounded corners*
0 $1 Rounding radius*
0 $2 $3 $4 $5 $6 $7 $8 $9 X,Y pos of 4 corners*
0 Add a 4 corners polygon primitive as box body*
4,1,4,$2,$3,$4,$5,$6,$7,$8,$9,$2,$3,0*
0 Add four circle primitives for the rounded corners*
1,1,$1+$1,$2,$3*
1,1,$1+$1,$4,$5*
1,1,$1+$1,$6,$7*
1,1,$1+$1,$8,$9*
0 Add four rect primitives between the rounded corners*
20,1,$1+$1,$2,$3,$4,$5,0*
20,1,$1+$1,$4,$5,$6,$7,0*
20,1,$1+$1,$6,$7,$8,$9,0*
20,1,$1+$1,$8,$9,$2,$3,0*%
G04 Aperture macros list end*
%ADD10C,1.750000*%
%ADD11C,3.987800*%
%ADD12C,2.250000*%
%ADD13C,3.048000*%
%ADD14C,1.905000*%
%ADD15C,2.000000*%
%ADD16R,1.905000X1.905000*%
%ADD17R,2.000000X2.000000*%
%ADD18C,1.800000*%
%ADD19C,6.000000*%
%ADD20R,1.700000X1.700000*%
%ADD21O,1.700000X1.700000*%
%ADD22C,1.752600*%
%ADD23C,4.400000*%
%ADD24R,1.200000X0.900000*%
%ADD25R,0.900000X1.200000*%
%ADD26RoundRect,0.243750X-0.243750X-0.456250X0.243750X-0.456250X0.243750X0.456250X-0.243750X0.456250X0*%
%ADD27RoundRect,0.243750X0.243750X0.456250X-0.243750X0.456250X-0.243750X-0.456250X0.243750X-0.456250X0*%
%ADD28RoundRect,0.243750X0.456250X-0.243750X0.456250X0.243750X-0.456250X0.243750X-0.456250X-0.243750X0*%
%ADD29RoundRect,0.243750X-0.456250X0.243750X-0.456250X-0.243750X0.456250X-0.243750X0.456250X0.243750X0*%
%ADD30RoundRect,0.250000X0.625000X-0.375000X0.625000X0.375000X-0.625000X0.375000X-0.625000X-0.375000X0*%
%ADD31RoundRect,0.200000X-0.250000X0.750000X-0.250000X-0.750000X0.250000X-0.750000X0.250000X0.750000X0*%
%ADD32RoundRect,0.200000X-0.750000X0.250000X-0.750000X-0.250000X0.750000X-0.250000X0.750000X0.250000X0*%
%ADD33R,1.200000X1.400000*%
%ADD34R,1.060000X0.650000*%
%ADD35C,0.750013*%
%ADD36O,1.200000X2.000000*%
%ADD37O,1.200000X1.800000*%
%ADD38R,0.300000X1.300000*%
G04 APERTURE END LIST*
D10*
X286194500Y-135001000D03*
D11*
X291274500Y-135001000D03*
D10*
X296354500Y-135001000D03*
D12*
X287464500Y-132461000D03*
X293814500Y-129921000D03*
D10*
X238569500Y-154051000D03*
D11*
X243649500Y-154051000D03*
D10*
X248729500Y-154051000D03*
D12*
X239839500Y-151511000D03*
X246189500Y-148971000D03*
D10*
X271907000Y-96901000D03*
D11*
X276987000Y-96901000D03*
D10*
X282067000Y-96901000D03*
D12*
X273177000Y-94361000D03*
X279527000Y-91821000D03*
D10*
X257619500Y-154051000D03*
D11*
X262699500Y-154051000D03*
D10*
X267779500Y-154051000D03*
D12*
X258889500Y-151511000D03*
X265239500Y-148971000D03*
D10*
X276669500Y-154051000D03*
D11*
X281749500Y-154051000D03*
D10*
X286829500Y-154051000D03*
D12*
X277939500Y-151511000D03*
X284289500Y-148971000D03*
D10*
X252857000Y-96901000D03*
D11*
X257937000Y-96901000D03*
D10*
X263017000Y-96901000D03*
D12*
X254127000Y-94361000D03*
X260477000Y-91821000D03*
D10*
X81407000Y-96901000D03*
D11*
X86487000Y-96901000D03*
D10*
X91567000Y-96901000D03*
D12*
X82677000Y-94361000D03*
X89027000Y-91821000D03*
D10*
X100457000Y-96901000D03*
D11*
X105537000Y-96901000D03*
D10*
X110617000Y-96901000D03*
D12*
X101727000Y-94361000D03*
X108077000Y-91821000D03*
D10*
X119507000Y-96901000D03*
D11*
X124587000Y-96901000D03*
D10*
X129667000Y-96901000D03*
D12*
X120777000Y-94361000D03*
X127127000Y-91821000D03*
D10*
X138557000Y-96901000D03*
D11*
X143637000Y-96901000D03*
D10*
X148717000Y-96901000D03*
D12*
X139827000Y-94361000D03*
X146177000Y-91821000D03*
D10*
X157607000Y-96901000D03*
D11*
X162687000Y-96901000D03*
D10*
X167767000Y-96901000D03*
D12*
X158877000Y-94361000D03*
X165227000Y-91821000D03*
D10*
X176657000Y-96901000D03*
D11*
X181737000Y-96901000D03*
D10*
X186817000Y-96901000D03*
D12*
X177927000Y-94361000D03*
X184277000Y-91821000D03*
D10*
X195707000Y-96901000D03*
D11*
X200787000Y-96901000D03*
D10*
X205867000Y-96901000D03*
D12*
X196977000Y-94361000D03*
X203327000Y-91821000D03*
D10*
X214757000Y-96901000D03*
D11*
X219837000Y-96901000D03*
D10*
X224917000Y-96901000D03*
D12*
X216027000Y-94361000D03*
X222377000Y-91821000D03*
D10*
X233807000Y-96901000D03*
D11*
X238887000Y-96901000D03*
D10*
X243967000Y-96901000D03*
D12*
X235077000Y-94361000D03*
X241427000Y-91821000D03*
D10*
X267144500Y-135001000D03*
D11*
X272224500Y-135001000D03*
D10*
X277304500Y-135001000D03*
D12*
X268414500Y-132461000D03*
X274764500Y-129921000D03*
D10*
X290957000Y-96901000D03*
D11*
X296037000Y-96901000D03*
D10*
X301117000Y-96901000D03*
D12*
X292227000Y-94361000D03*
X298577000Y-91821000D03*
D10*
X281432000Y-115951000D03*
D11*
X286512000Y-115951000D03*
D10*
X291592000Y-115951000D03*
D12*
X282702000Y-113411000D03*
X289052000Y-110871000D03*
D10*
X324232000Y-115966000D03*
D11*
X329312000Y-115966000D03*
D10*
X334392000Y-115966000D03*
D12*
X325502000Y-113426000D03*
X331852000Y-110886000D03*
D10*
X300482000Y-115951000D03*
D11*
X305562000Y-115951000D03*
D10*
X310642000Y-115951000D03*
D12*
X301752000Y-113411000D03*
X308102000Y-110871000D03*
D10*
X95694500Y-135001000D03*
D11*
X100774500Y-135001000D03*
D10*
X105854500Y-135001000D03*
D12*
X96964500Y-132461000D03*
X103314500Y-129921000D03*
D10*
X181419500Y-154051000D03*
D11*
X186499500Y-154051000D03*
D10*
X191579500Y-154051000D03*
D12*
X182689500Y-151511000D03*
X189039500Y-148971000D03*
D13*
X312703210Y-89916000D03*
D11*
X312703210Y-105156000D03*
D10*
X319529460Y-96901000D03*
D11*
X324609460Y-96901000D03*
D10*
X329689460Y-96901000D03*
D13*
X336515710Y-89916000D03*
D11*
X336515710Y-105156000D03*
D12*
X320799460Y-94361000D03*
X327149460Y-91821000D03*
D10*
X143319500Y-154051000D03*
D11*
X148399500Y-154051000D03*
D10*
X153479500Y-154051000D03*
D12*
X144589500Y-151511000D03*
X150939500Y-148971000D03*
D10*
X64738250Y-135001000D03*
X69500750Y-135001000D03*
D11*
X69818250Y-135001000D03*
X74580750Y-135001000D03*
D10*
X74898250Y-135001000D03*
X79660750Y-135001000D03*
D12*
X66008250Y-132461000D03*
X70770750Y-132461000D03*
X72358250Y-129921000D03*
X77120750Y-129921000D03*
D14*
X68548250Y-140081000D03*
D15*
X73310750Y-140081000D03*
D16*
X71088250Y-140081000D03*
D17*
X75850750Y-140081000D03*
D10*
X133794500Y-135001000D03*
D11*
X138874500Y-135001000D03*
D10*
X143954500Y-135001000D03*
D12*
X135064500Y-132461000D03*
X141414500Y-129921000D03*
D10*
X343344500Y-77851000D03*
D11*
X348424500Y-77851000D03*
D10*
X353504500Y-77851000D03*
D12*
X344614500Y-75311000D03*
X350964500Y-72771000D03*
D10*
X329057000Y-173101000D03*
D11*
X334137000Y-173101000D03*
D10*
X339217000Y-173101000D03*
D12*
X330327000Y-170561000D03*
X336677000Y-168021000D03*
D10*
X129032000Y-115951000D03*
D11*
X134112000Y-115951000D03*
D10*
X139192000Y-115951000D03*
D12*
X130302000Y-113411000D03*
X136652000Y-110871000D03*
D10*
X348107000Y-154051000D03*
D11*
X353187000Y-154051000D03*
D10*
X358267000Y-154051000D03*
D12*
X349377000Y-151511000D03*
X355727000Y-148971000D03*
D13*
X310305750Y-128021000D03*
D11*
X310305750Y-143261000D03*
D10*
X317132000Y-135006000D03*
D11*
X322212000Y-135006000D03*
X323482000Y-113543000D03*
X323482000Y-137419000D03*
D10*
X326657000Y-125481000D03*
X327292000Y-135006000D03*
D11*
X331737000Y-125481000D03*
D13*
X334118250Y-128021000D03*
D11*
X334118250Y-143261000D03*
D10*
X336817000Y-125481000D03*
D13*
X338722000Y-113543000D03*
X338722000Y-137419000D03*
D12*
X318402000Y-132466000D03*
X327927000Y-122941000D03*
X324752000Y-129926000D03*
X334277000Y-120401000D03*
D10*
X67119500Y-77851000D03*
D11*
X72199500Y-77851000D03*
D10*
X77279500Y-77851000D03*
D12*
X68389500Y-75311000D03*
X74739500Y-72771000D03*
D10*
X90932000Y-77851000D03*
D11*
X96012000Y-77851000D03*
D10*
X101092000Y-77851000D03*
D12*
X92202000Y-75311000D03*
X98552000Y-72771000D03*
D10*
X109982000Y-77851000D03*
D11*
X115062000Y-77851000D03*
D10*
X120142000Y-77851000D03*
D12*
X111252000Y-75311000D03*
X117602000Y-72771000D03*
D10*
X129032000Y-77851000D03*
D11*
X134112000Y-77851000D03*
D10*
X139192000Y-77851000D03*
D12*
X130302000Y-75311000D03*
X136652000Y-72771000D03*
D10*
X148082000Y-77851000D03*
D11*
X153162000Y-77851000D03*
D10*
X158242000Y-77851000D03*
D12*
X149352000Y-75311000D03*
X155702000Y-72771000D03*
D10*
X167132000Y-77851000D03*
D11*
X172212000Y-77851000D03*
D10*
X177292000Y-77851000D03*
D12*
X168402000Y-75311000D03*
X174752000Y-72771000D03*
D10*
X186182000Y-77851000D03*
D11*
X191262000Y-77851000D03*
D10*
X196342000Y-77851000D03*
D12*
X187452000Y-75311000D03*
X193802000Y-72771000D03*
D10*
X205232000Y-77851000D03*
D11*
X210312000Y-77851000D03*
D10*
X215392000Y-77851000D03*
D12*
X206502000Y-75311000D03*
X212852000Y-72771000D03*
D10*
X224282000Y-77851000D03*
D11*
X229362000Y-77851000D03*
D10*
X234442000Y-77851000D03*
D12*
X225552000Y-75311000D03*
X231902000Y-72771000D03*
D10*
X243332000Y-77851000D03*
D11*
X248412000Y-77851000D03*
D10*
X253492000Y-77851000D03*
D12*
X244602000Y-75311000D03*
X250952000Y-72771000D03*
D10*
X262382000Y-77851000D03*
D11*
X267462000Y-77851000D03*
D10*
X272542000Y-77851000D03*
D12*
X263652000Y-75311000D03*
X270002000Y-72771000D03*
D10*
X281432000Y-77851000D03*
D11*
X286512000Y-77851000D03*
D10*
X291592000Y-77851000D03*
D12*
X282702000Y-75311000D03*
X289052000Y-72771000D03*
D10*
X300482000Y-77851000D03*
D11*
X305562000Y-77851000D03*
D10*
X310642000Y-77851000D03*
D12*
X301752000Y-75311000D03*
X308102000Y-72771000D03*
D10*
X152844500Y-135001000D03*
D11*
X157924500Y-135001000D03*
D10*
X163004500Y-135001000D03*
D12*
X154114500Y-132461000D03*
X160464500Y-129921000D03*
D10*
X271907000Y-173101000D03*
D11*
X276987000Y-173101000D03*
D10*
X282067000Y-173101000D03*
D12*
X273177000Y-170561000D03*
X279527000Y-168021000D03*
D10*
X171894500Y-135001000D03*
D11*
X176974500Y-135001000D03*
D10*
X182054500Y-135001000D03*
D12*
X173164500Y-132461000D03*
X179514500Y-129921000D03*
D10*
X62357000Y-96901000D03*
D11*
X67437000Y-96901000D03*
D10*
X72517000Y-96901000D03*
D12*
X63627000Y-94361000D03*
X69977000Y-91821000D03*
D10*
X190944500Y-135001000D03*
D11*
X196024500Y-135001000D03*
D10*
X201104500Y-135001000D03*
D12*
X192214500Y-132461000D03*
X198564500Y-129921000D03*
D10*
X348107000Y-96901000D03*
D11*
X353187000Y-96901000D03*
D10*
X358267000Y-96901000D03*
D12*
X349377000Y-94361000D03*
X355727000Y-91821000D03*
D10*
X224282000Y-115951000D03*
D11*
X229362000Y-115951000D03*
D10*
X234442000Y-115951000D03*
D12*
X225552000Y-113411000D03*
X231902000Y-110871000D03*
D10*
X209994500Y-135001000D03*
D11*
X215074500Y-135001000D03*
D10*
X220154500Y-135001000D03*
D12*
X211264500Y-132461000D03*
X217614500Y-129921000D03*
D10*
X229044500Y-135001000D03*
D11*
X234124500Y-135001000D03*
D10*
X239204500Y-135001000D03*
D12*
X230314500Y-132461000D03*
X236664500Y-129921000D03*
D10*
X248094500Y-135001000D03*
D11*
X253174500Y-135001000D03*
D10*
X258254500Y-135001000D03*
D12*
X249364500Y-132461000D03*
X255714500Y-129921000D03*
D10*
X112363250Y-173101000D03*
D11*
X117443250Y-173101000D03*
D10*
X122523250Y-173101000D03*
D12*
X113633250Y-170561000D03*
X119983250Y-168021000D03*
D10*
X252857000Y-173101000D03*
D11*
X257937000Y-173101000D03*
D10*
X263017000Y-173101000D03*
D12*
X254127000Y-170561000D03*
X260477000Y-168021000D03*
D10*
X64738250Y-173101000D03*
D11*
X69818250Y-173101000D03*
D10*
X74898250Y-173101000D03*
D12*
X66008250Y-170561000D03*
X72358250Y-168021000D03*
D10*
X310007000Y-173101000D03*
D11*
X315087000Y-173101000D03*
D10*
X320167000Y-173101000D03*
D12*
X311277000Y-170561000D03*
X317627000Y-168021000D03*
D10*
X64744600Y-154035760D03*
D13*
X67443350Y-147050760D03*
D11*
X67443350Y-162290760D03*
X69824600Y-154035760D03*
D10*
X74269600Y-154035760D03*
X74904600Y-154035760D03*
D11*
X79349600Y-154035760D03*
D10*
X84429600Y-154035760D03*
D13*
X91255850Y-147050760D03*
D11*
X91255850Y-162290760D03*
D12*
X66014600Y-151495760D03*
X75539600Y-151495760D03*
X72364600Y-148955760D03*
X81889600Y-148955760D03*
D10*
X88550750Y-173101000D03*
D11*
X93630750Y-173101000D03*
D10*
X98710750Y-173101000D03*
D12*
X89820750Y-170561000D03*
X96170750Y-168021000D03*
D10*
X219519500Y-154051000D03*
D11*
X224599500Y-154051000D03*
D10*
X229679500Y-154051000D03*
D12*
X220789500Y-151511000D03*
X227139500Y-148971000D03*
D10*
X200469500Y-154051000D03*
D11*
X205549500Y-154051000D03*
D10*
X210629500Y-154051000D03*
D12*
X201739500Y-151511000D03*
X208089500Y-148971000D03*
D10*
X243332000Y-115951000D03*
D11*
X248412000Y-115951000D03*
D10*
X253492000Y-115951000D03*
D12*
X244602000Y-113411000D03*
X250952000Y-110871000D03*
D10*
X262382000Y-115951000D03*
D11*
X267462000Y-115951000D03*
D10*
X272542000Y-115951000D03*
D12*
X263652000Y-113411000D03*
X270002000Y-110871000D03*
D10*
X348107000Y-135001000D03*
D11*
X353187000Y-135001000D03*
D10*
X358267000Y-135001000D03*
D12*
X349377000Y-132461000D03*
X355727000Y-129921000D03*
D10*
X348107000Y-115951000D03*
D11*
X353187000Y-115951000D03*
D10*
X358267000Y-115951000D03*
D12*
X349377000Y-113411000D03*
X355727000Y-110871000D03*
D10*
X319532000Y-77851000D03*
D11*
X324612000Y-77851000D03*
D10*
X329692000Y-77851000D03*
D12*
X320802000Y-75311000D03*
X327152000Y-72771000D03*
D10*
X90932000Y-115951000D03*
D11*
X96012000Y-115951000D03*
D10*
X101092000Y-115951000D03*
D12*
X92202000Y-113411000D03*
X98552000Y-110871000D03*
D10*
X148082000Y-115951000D03*
D11*
X153162000Y-115951000D03*
D10*
X158242000Y-115951000D03*
D12*
X149352000Y-113411000D03*
X155702000Y-110871000D03*
D10*
X290957000Y-173101000D03*
D11*
X296037000Y-173101000D03*
D10*
X301117000Y-173101000D03*
D12*
X292227000Y-170561000D03*
X298577000Y-168021000D03*
D10*
X348107000Y-173101000D03*
D11*
X353187000Y-173101000D03*
D10*
X358267000Y-173101000D03*
D12*
X349377000Y-170561000D03*
X355727000Y-168021000D03*
D10*
X302863250Y-154051000D03*
D11*
X307943250Y-154051000D03*
D10*
X313023250Y-154051000D03*
D12*
X304133250Y-151511000D03*
X310483250Y-148971000D03*
D10*
X114744500Y-135001000D03*
D11*
X119824500Y-135001000D03*
D10*
X124904500Y-135001000D03*
D12*
X116014500Y-132461000D03*
X122364500Y-129921000D03*
D10*
X167132000Y-115951000D03*
D11*
X172212000Y-115951000D03*
D10*
X177292000Y-115951000D03*
D12*
X168402000Y-113411000D03*
X174752000Y-110871000D03*
D10*
X67119500Y-115951000D03*
D11*
X72199500Y-115951000D03*
D10*
X77279500Y-115951000D03*
D12*
X68389500Y-113411000D03*
X74739500Y-110871000D03*
D10*
X205232000Y-115951000D03*
D11*
X210312000Y-115951000D03*
D10*
X215392000Y-115951000D03*
D12*
X206502000Y-113411000D03*
X212852000Y-110871000D03*
D10*
X329057000Y-154051000D03*
D11*
X334137000Y-154051000D03*
D10*
X339217000Y-154051000D03*
D12*
X330327000Y-151511000D03*
X336677000Y-148971000D03*
D10*
X162369500Y-154051000D03*
D11*
X167449500Y-154051000D03*
D10*
X172529500Y-154051000D03*
D12*
X163639500Y-151511000D03*
X169989500Y-148971000D03*
D10*
X109982000Y-115951000D03*
D11*
X115062000Y-115951000D03*
D10*
X120142000Y-115951000D03*
D12*
X111252000Y-113411000D03*
X117602000Y-110871000D03*
D10*
X124269500Y-154051000D03*
D11*
X129349500Y-154051000D03*
D10*
X134429500Y-154051000D03*
D12*
X125539500Y-151511000D03*
X131889500Y-148971000D03*
D10*
X186182000Y-115951000D03*
D11*
X191262000Y-115951000D03*
D10*
X196342000Y-115951000D03*
D12*
X187452000Y-113411000D03*
X193802000Y-110871000D03*
D10*
X105219500Y-154051000D03*
D11*
X110299500Y-154051000D03*
D10*
X115379500Y-154051000D03*
D12*
X106489500Y-151511000D03*
X112839500Y-148971000D03*
D18*
X82586000Y-126544000D03*
X87086000Y-133044000D03*
X87086000Y-126544000D03*
X82586000Y-133044000D03*
D19*
X84105750Y-115976000D03*
X79812000Y-172976000D03*
X210312000Y-87476000D03*
X186500000Y-135001000D03*
X246812000Y-173476000D03*
X317812000Y-115976000D03*
X340812000Y-143976000D03*
D20*
X131062000Y-177226000D03*
D21*
X133602000Y-177226000D03*
X131316000Y-174686000D03*
X133856000Y-174686000D03*
X131062000Y-172146000D03*
X133602000Y-172146000D03*
D11*
X138912600Y-164846000D03*
D13*
X138912600Y-180086000D03*
D10*
X183832500Y-173101000D03*
D11*
X188912500Y-173101000D03*
D10*
X193992500Y-173101000D03*
D11*
X238912400Y-164846000D03*
D13*
X238912400Y-180086000D03*
D12*
X185102500Y-170561000D03*
X191452500Y-168021000D03*
D10*
X86190000Y-154050000D03*
D11*
X91270000Y-154050000D03*
D10*
X96350000Y-154050000D03*
D12*
X87460000Y-151510000D03*
X93810000Y-148970000D03*
D10*
X305222000Y-135006000D03*
D11*
X310302000Y-135006000D03*
D10*
X315382000Y-135006000D03*
D12*
X306492000Y-132466000D03*
X312842000Y-129926000D03*
D22*
X105537000Y-72985000D03*
D23*
X84105750Y-118756000D03*
D19*
X81724500Y-171776000D03*
D23*
X321040125Y-159131000D03*
D19*
X343662000Y-171776000D03*
X162687000Y-75676000D03*
X267462000Y-171776000D03*
X267462000Y-171776000D03*
D23*
X336515710Y-75676000D03*
D19*
X177882000Y-174776000D03*
X257937000Y-75676000D03*
X200787000Y-125476000D03*
X129349500Y-125476000D03*
X281749500Y-125476000D03*
D23*
X105537000Y-171606000D03*
D24*
X105568750Y-81818750D03*
X105568750Y-78518750D03*
X124587000Y-81818750D03*
X124587000Y-78518750D03*
X145288000Y-81818750D03*
X145288000Y-78518750D03*
X181737000Y-81818750D03*
X181737000Y-78518750D03*
X200787000Y-81818750D03*
X200787000Y-78518750D03*
X237236000Y-81818750D03*
X237236000Y-78518750D03*
X296037000Y-81818750D03*
X296037000Y-78518750D03*
X315087000Y-81818750D03*
X315087000Y-78518750D03*
X343662000Y-119982250D03*
X343662000Y-116682250D03*
X340562000Y-81818750D03*
X340562000Y-78518750D03*
X115062000Y-100138500D03*
X115062000Y-96838500D03*
X141986000Y-81818750D03*
X141986000Y-78518750D03*
X153162000Y-100138500D03*
X153162000Y-96838500D03*
X219837000Y-81818750D03*
X219837000Y-78518750D03*
X240538000Y-81786000D03*
X240538000Y-78486000D03*
X276987000Y-81818750D03*
X276987000Y-78518750D03*
X332562000Y-81818750D03*
X332562000Y-78518750D03*
X343662000Y-138238500D03*
X343662000Y-134938500D03*
X343662000Y-100138500D03*
X343662000Y-96838500D03*
X76962000Y-100138500D03*
X76962000Y-96838500D03*
X96012000Y-100138500D03*
X96012000Y-96838500D03*
X134112000Y-100138500D03*
X134112000Y-96838500D03*
X172212000Y-100138500D03*
X172212000Y-96838500D03*
X229362000Y-100138500D03*
X229362000Y-96838500D03*
X267462000Y-100138500D03*
X267462000Y-96838500D03*
X286512000Y-100138500D03*
X286512000Y-96838500D03*
X334137000Y-100138500D03*
X334137000Y-96838500D03*
X326062000Y-157276000D03*
X326062000Y-153976000D03*
X63468250Y-119188500D03*
X63468250Y-115888500D03*
X105537000Y-119188500D03*
X105537000Y-115888500D03*
X143637000Y-119188500D03*
X143637000Y-115888500D03*
X191262000Y-100138500D03*
X191262000Y-96838500D03*
X210312000Y-100138500D03*
X210312000Y-96838500D03*
X248412000Y-100138500D03*
X248412000Y-96838500D03*
X305562000Y-100138500D03*
X305562000Y-96838500D03*
X338899500Y-119982250D03*
X338899500Y-116682250D03*
X343662000Y-157288500D03*
X343662000Y-153988500D03*
X62596750Y-138238500D03*
X62596750Y-134938500D03*
X124587000Y-119188500D03*
X124587000Y-115888500D03*
X162687000Y-119188500D03*
X162687000Y-115888500D03*
X200787000Y-119188500D03*
X200787000Y-115888500D03*
X219837000Y-119188500D03*
X219837000Y-115888500D03*
X257937000Y-119188500D03*
X257937000Y-115888500D03*
X294449500Y-119188500D03*
X294449500Y-115888500D03*
X297624500Y-119188500D03*
X297624500Y-115888500D03*
D25*
X342012000Y-176338500D03*
X345312000Y-176338500D03*
D24*
X62690400Y-157288500D03*
X62690400Y-153988500D03*
X129349500Y-138238500D03*
X129349500Y-134938500D03*
X165862000Y-138238500D03*
X165862000Y-134938500D03*
X181737000Y-119188500D03*
X181737000Y-115888500D03*
X238887000Y-119188500D03*
X238887000Y-115888500D03*
X276987000Y-119188500D03*
X276987000Y-115888500D03*
X299213000Y-138238500D03*
X299213000Y-134938500D03*
X331755750Y-138238500D03*
X331755750Y-134938500D03*
X326312000Y-176338500D03*
X326312000Y-173038500D03*
X61880750Y-176338500D03*
X61880750Y-173038500D03*
X110299500Y-138238500D03*
X110299500Y-134938500D03*
X148399500Y-138238500D03*
X148399500Y-134938500D03*
X169037000Y-138238500D03*
X169037000Y-134938500D03*
X224599500Y-138238500D03*
X224599500Y-134938500D03*
X262699500Y-138238500D03*
X262699500Y-134938500D03*
X281749500Y-138238500D03*
X281749500Y-134938500D03*
X315812000Y-157288500D03*
X315812000Y-153988500D03*
X323062000Y-176338500D03*
X323062000Y-173038500D03*
X101062000Y-176338500D03*
X101062000Y-173038500D03*
X119824500Y-157288500D03*
X119824500Y-153988500D03*
X157924500Y-157288500D03*
X157924500Y-153988500D03*
X196024500Y-157288500D03*
X196024500Y-153988500D03*
X205549500Y-138238500D03*
X205549500Y-134938500D03*
X243649500Y-138238500D03*
X243649500Y-134938500D03*
X272224500Y-157288500D03*
X272224500Y-153988500D03*
X291274500Y-157288500D03*
X291274500Y-153988500D03*
X305562000Y-176338500D03*
X305562000Y-173038500D03*
X126968250Y-176338500D03*
X126968250Y-173038500D03*
X138874500Y-157288500D03*
X138874500Y-153988500D03*
X176974500Y-157288500D03*
X176974500Y-153988500D03*
X198405750Y-176338500D03*
X198405750Y-173038500D03*
X215074500Y-157288500D03*
X215074500Y-153988500D03*
X234124500Y-157288500D03*
X234124500Y-153988500D03*
X253174500Y-157288500D03*
X253174500Y-153988500D03*
X240562000Y-176338500D03*
X240562000Y-173038500D03*
X286512000Y-176338500D03*
X286512000Y-173038500D03*
D26*
X166035700Y-173754650D03*
X167910700Y-173754650D03*
D27*
X167910700Y-164230250D03*
X166035700Y-164230250D03*
X154888100Y-158965250D03*
X153013100Y-158965250D03*
D28*
X161093900Y-177073250D03*
X161093900Y-175198250D03*
D29*
X160528050Y-160536050D03*
X160528050Y-162411050D03*
X145219900Y-175140900D03*
X145219900Y-177015900D03*
D26*
X145869800Y-162642850D03*
X147744800Y-162642850D03*
D30*
X76962000Y-88776000D03*
X76962000Y-85976000D03*
D28*
X162560050Y-162411050D03*
X162560050Y-160536050D03*
D29*
X147601000Y-175142170D03*
X147601000Y-177017170D03*
D31*
X150276500Y-163076000D03*
X151076500Y-163076000D03*
X151876500Y-163076000D03*
X152676500Y-163076000D03*
X153476500Y-163076000D03*
X154276500Y-163076000D03*
X155076500Y-163076000D03*
X155876500Y-163076000D03*
X156676500Y-163076000D03*
X157476500Y-163076000D03*
X158276500Y-163076000D03*
D32*
X160176500Y-164976000D03*
X160176500Y-165776000D03*
X160176500Y-166576000D03*
X160176500Y-167376000D03*
X160176500Y-168176000D03*
X160176500Y-168976000D03*
X160176500Y-169776000D03*
X160176500Y-170576000D03*
X160176500Y-171376000D03*
X160176500Y-172176000D03*
X160176500Y-172976000D03*
D31*
X158276500Y-174876000D03*
X157476500Y-174876000D03*
X156676500Y-174876000D03*
X155876500Y-174876000D03*
X155076500Y-174876000D03*
X154276500Y-174876000D03*
X153476500Y-174876000D03*
X152676500Y-174876000D03*
X151876500Y-174876000D03*
X151076500Y-174876000D03*
X150276500Y-174876000D03*
D32*
X148376500Y-172976000D03*
X148376500Y-172176000D03*
X148376500Y-171376000D03*
X148376500Y-170576000D03*
X148376500Y-169776000D03*
X148376500Y-168976000D03*
X148376500Y-168176000D03*
X148376500Y-167376000D03*
X148376500Y-166576000D03*
X148376500Y-165776000D03*
X148376500Y-164976000D03*
D33*
X165799800Y-170092450D03*
X165799800Y-167892450D03*
X167499800Y-167892450D03*
X167499800Y-170092450D03*
D34*
X82281720Y-83165500D03*
X82281720Y-82215500D03*
X82281720Y-81265500D03*
X84481720Y-81265500D03*
X84481720Y-82215500D03*
X84481720Y-83165500D03*
D26*
X72595500Y-143764000D03*
X74470500Y-143764000D03*
D24*
X100772850Y-157288500D03*
X100772850Y-153988500D03*
X302387800Y-138238500D03*
X302387800Y-134938500D03*
X69519800Y-87312500D03*
X69519800Y-84012500D03*
D28*
X84733920Y-89313100D03*
X84733920Y-87438100D03*
D29*
X82130420Y-87438100D03*
X82130420Y-89313100D03*
D35*
X80982026Y-75191521D03*
X86781874Y-75191521D03*
D36*
X79556829Y-75691648D03*
X88207071Y-75691648D03*
D37*
X88207071Y-71511740D03*
X79556829Y-71511740D03*
D38*
X80531937Y-76460000D03*
X81332039Y-76460000D03*
X82632014Y-76460000D03*
X83632014Y-76460000D03*
X84131886Y-76460000D03*
X85131632Y-76460000D03*
X86432115Y-76460000D03*
X87231963Y-76460000D03*
X86931988Y-76460000D03*
X86131886Y-76460000D03*
X85632014Y-76460000D03*
X84632014Y-76460000D03*
X83131886Y-76460000D03*
X82131886Y-76460000D03*
X81632014Y-76460000D03*
X80831912Y-76460000D03*
D29*
X79987000Y-81288500D03*
X79987000Y-83163500D03*
X86812000Y-81288500D03*
X86812000Y-83163500D03*
M02*
