M48
; DRILL file {KiCad (5.1.4)-1} date 11/06/23 10:02:39 PM
; FORMAT={-:-/ absolute / metric / decimal}
; #@! TF.CreationDate,2023-11-06T22:02:39-06:00
; #@! TF.GenerationSoftware,Kicad,Pcbnew,(5.1.4)-1
; #@! TF.FileFunction,NonPlated,1,2,NPTH
FMAT,2
METRIC
T1C0.750
T2C1.750
T3C3.000
T4C3.988
T5C6.000
%
G90
G05
T1
X80.895Y-75.12
X86.695Y-75.12
T2
X324.292Y-115.948
X334.452Y-115.948
X112.363Y-173.101
X122.523Y-173.101
X90.932Y-115.951
X101.092Y-115.951
X64.738Y-154.036
X74.27Y-154.036
X74.898Y-154.036
X84.43Y-154.036
X310.007Y-173.101
X320.167Y-173.101
X124.269Y-154.051
X134.429Y-154.051
X205.232Y-77.851
X215.392Y-77.851
X90.932Y-77.851
X101.092Y-77.851
X302.863Y-154.051
X313.023Y-154.051
X171.894Y-135.001
X182.054Y-135.001
X186.182Y-115.951
X196.342Y-115.951
X257.62Y-154.051
X267.779Y-154.051
X248.094Y-135.001
X258.255Y-135.001
X229.044Y-135.001
X239.204Y-135.001
X129.032Y-77.851
X139.192Y-77.851
X219.519Y-154.051
X229.679Y-154.051
X286.195Y-135.001
X296.354Y-135.001
X209.994Y-135.001
X220.154Y-135.001
X348.107Y-173.101
X358.267Y-173.101
X300.482Y-115.951
X310.642Y-115.951
X67.12Y-115.951
X77.279Y-115.951
X224.282Y-77.851
X234.442Y-77.851
X281.432Y-115.951
X291.592Y-115.951
X348.107Y-135.001
X358.267Y-135.001
X81.407Y-96.901
X91.567Y-96.901
X348.107Y-96.901
X358.267Y-96.901
X62.357Y-96.901
X72.517Y-96.901
X148.082Y-77.851
X158.242Y-77.851
X186.182Y-77.851
X196.342Y-77.851
X233.807Y-96.901
X243.967Y-96.901
X105.219Y-154.051
X115.379Y-154.051
X88.551Y-173.101
X98.711Y-173.101
X348.107Y-115.951
X358.267Y-115.951
X183.832Y-173.101
X193.992Y-173.101
X329.057Y-173.101
X339.217Y-173.101
X262.382Y-115.951
X272.542Y-115.951
X281.432Y-77.851
X291.592Y-77.851
X276.669Y-154.051
X286.829Y-154.051
X224.282Y-115.951
X234.442Y-115.951
X119.507Y-96.901
X129.667Y-96.901
X67.12Y-77.851
X77.279Y-77.851
X238.569Y-154.051
X248.73Y-154.051
X167.132Y-115.951
X177.292Y-115.951
X190.945Y-135.001
X201.105Y-135.001
X100.457Y-96.901
X110.617Y-96.901
X200.469Y-154.051
X210.629Y-154.051
X133.794Y-135.001
X143.954Y-135.001
X243.332Y-115.951
X253.492Y-115.951
X167.132Y-77.851
X177.292Y-77.851
X181.419Y-154.051
X191.579Y-154.051
X148.082Y-115.951
X158.242Y-115.951
X195.707Y-96.901
X205.867Y-96.901
X262.382Y-77.851
X272.542Y-77.851
X267.144Y-135.001
X277.304Y-135.001
X109.982Y-77.851
X120.142Y-77.851
X152.844Y-135.001
X163.004Y-135.001
X300.482Y-77.851
X310.642Y-77.851
X214.757Y-96.901
X224.917Y-96.901
X343.344Y-77.851
X353.505Y-77.851
X86.19Y-154.05
X96.35Y-154.05
X157.607Y-96.901
X167.767Y-96.901
X348.107Y-154.051
X358.267Y-154.051
X143.32Y-154.051
X153.48Y-154.051
X271.907Y-173.101
X282.067Y-173.101
X317.148Y-134.999
X326.675Y-125.474
X327.308Y-134.999
X336.835Y-125.474
X329.057Y-154.051
X339.217Y-154.051
X162.369Y-154.051
X172.529Y-154.051
X252.857Y-173.101
X263.017Y-173.101
X95.694Y-135.001
X105.855Y-135.001
X138.557Y-96.901
X148.717Y-96.901
X64.738Y-135.001
X69.501Y-135.001
X74.898Y-135.001
X79.661Y-135.001
X64.738Y-173.101
X74.898Y-173.101
X109.982Y-115.951
X120.142Y-115.951
X205.232Y-115.951
X215.392Y-115.951
X290.957Y-173.101
X301.117Y-173.101
X252.857Y-96.901
X263.017Y-96.901
X129.032Y-115.951
X139.192Y-115.951
X243.332Y-77.851
X253.492Y-77.851
X319.529Y-96.901
X329.689Y-96.901
X176.657Y-96.901
X186.817Y-96.901
X319.532Y-77.851
X329.692Y-77.851
X114.744Y-135.001
X124.904Y-135.001
X305.248Y-135.0
X315.408Y-135.0
X271.907Y-96.901
X282.067Y-96.901
X290.957Y-96.901
X301.117Y-96.901
T3
X105.537Y-74.465
T4
X219.837Y-96.901
X348.424Y-77.851
X91.27Y-154.05
X162.687Y-96.901
X353.187Y-154.051
X148.399Y-154.051
X276.987Y-173.101
X322.228Y-134.999
X331.755Y-125.474
X334.137Y-154.051
X167.45Y-154.051
X257.937Y-173.101
X100.774Y-135.001
X143.637Y-96.901
X69.818Y-135.001
X74.581Y-135.001
X69.818Y-173.101
X115.062Y-115.951
X210.312Y-115.951
X296.037Y-173.101
X257.937Y-96.901
X134.112Y-115.951
X248.412Y-77.851
X324.609Y-96.901
X181.737Y-96.901
X324.612Y-77.851
X119.825Y-135.001
X310.328Y-135.0
X276.987Y-96.901
X296.037Y-96.901
X329.372Y-115.948
X117.443Y-173.101
X96.012Y-115.951
X69.818Y-154.036
X79.35Y-154.036
X315.087Y-173.101
X129.35Y-154.051
X210.312Y-77.851
X96.012Y-77.851
X307.943Y-154.051
X176.975Y-135.001
X191.262Y-115.951
X262.7Y-154.051
X253.174Y-135.001
X234.124Y-135.001
X134.112Y-77.851
X224.599Y-154.051
X291.274Y-135.001
X215.075Y-135.001
X353.187Y-173.101
X305.562Y-115.951
X72.2Y-115.951
X229.362Y-77.851
X286.512Y-115.951
X353.187Y-135.001
X86.487Y-96.901
X353.187Y-96.901
X67.437Y-96.901
X153.162Y-77.851
X191.262Y-77.851
X238.887Y-96.901
X110.299Y-154.051
X93.631Y-173.101
X353.187Y-115.951
X188.912Y-173.101
X334.137Y-173.101
X267.462Y-115.951
X286.512Y-77.851
X281.75Y-154.051
X229.362Y-115.951
X124.587Y-96.901
X72.2Y-77.851
X243.649Y-154.051
X172.212Y-115.951
X196.024Y-135.001
X105.537Y-96.901
X205.549Y-154.051
X138.874Y-135.001
X248.412Y-115.951
X172.212Y-77.851
X186.499Y-154.051
X153.162Y-115.951
X200.787Y-96.901
X267.462Y-77.851
X272.224Y-135.001
X115.062Y-77.851
X157.924Y-135.001
X305.562Y-77.851
T5
X317.832Y-116.461
X79.678Y-173.141
X340.942Y-144.126
X210.312Y-87.956
X186.499Y-135.271
X248.211Y-173.654
X83.844Y-116.078
T0
M30
