G04 #@! TF.GenerationSoftware,KiCad,Pcbnew,(5.1.4)-1*
G04 #@! TF.CreationDate,2023-12-10T20:53:54-06:00*
G04 #@! TF.ProjectId,bear_face_pcb,62656172-5f66-4616-9365-5f7063622e6b,rev?*
G04 #@! TF.SameCoordinates,Original*
G04 #@! TF.FileFunction,Soldermask,Top*
G04 #@! TF.FilePolarity,Negative*
%FSLAX46Y46*%
G04 Gerber Fmt 4.6, Leading zero omitted, Abs format (unit mm)*
G04 Created by KiCad (PCBNEW (5.1.4)-1) date 2023-12-10 20:53:54*
%MOMM*%
%LPD*%
G04 APERTURE LIST*
%ADD10C,3.987800*%
%ADD11C,1.750000*%
%ADD12C,3.048000*%
%ADD13C,0.700025*%
%ADD14O,1.000000X1.700000*%
%ADD15R,1.700000X1.700000*%
%ADD16O,1.700000X1.700000*%
%ADD17C,3.000000*%
%ADD18C,6.000000*%
G04 APERTURE END LIST*
D10*
X74580750Y-135001000D03*
D11*
X69500750Y-135001000D03*
X79660750Y-135001000D03*
X64738250Y-135001000D03*
D10*
X69818250Y-135001000D03*
D11*
X74898250Y-135001000D03*
D10*
X91270000Y-154050000D03*
D11*
X86190000Y-154050000D03*
X96350000Y-154050000D03*
D10*
X91255850Y-162290760D03*
X67443350Y-162290760D03*
D12*
X91255850Y-147050760D03*
X67443350Y-147050760D03*
D11*
X84429600Y-154035760D03*
X74269600Y-154035760D03*
D10*
X79349600Y-154035760D03*
D11*
X64744600Y-154035760D03*
D10*
X69824600Y-154035760D03*
D11*
X74904600Y-154035760D03*
D10*
X310302000Y-135006000D03*
D11*
X305222000Y-135006000D03*
X315382000Y-135006000D03*
D12*
X338722000Y-137419000D03*
D10*
X323482000Y-137419000D03*
X323482000Y-113543000D03*
X331737000Y-125481000D03*
D12*
X338722000Y-113543000D03*
D11*
X336817000Y-125481000D03*
X326657000Y-125481000D03*
D10*
X322212000Y-135006000D03*
D11*
X317132000Y-135006000D03*
X327292000Y-135006000D03*
D12*
X310305750Y-128021000D03*
X334118250Y-128021000D03*
D10*
X310305750Y-143261000D03*
X334118250Y-143261000D03*
D11*
X334392000Y-115966000D03*
X324232000Y-115966000D03*
D10*
X329312000Y-115966000D03*
X324609460Y-96901000D03*
D11*
X319529460Y-96901000D03*
X329689460Y-96901000D03*
D12*
X312703210Y-89916000D03*
X336515710Y-89916000D03*
D10*
X312703210Y-105156000D03*
X336515710Y-105156000D03*
X238912400Y-164846000D03*
X138912600Y-164846000D03*
D12*
X238912400Y-180086000D03*
X138912600Y-180086000D03*
D11*
X193992500Y-173101000D03*
X183832500Y-173101000D03*
D10*
X188912500Y-173101000D03*
D13*
X81881950Y-73196051D03*
X85881950Y-73196051D03*
D14*
X87457007Y-74520917D03*
X80306893Y-74520917D03*
X80306893Y-71071083D03*
X87457007Y-71071083D03*
D15*
X131062000Y-177226000D03*
D16*
X133602000Y-177226000D03*
X131316000Y-174686000D03*
X133856000Y-174686000D03*
X131062000Y-172146000D03*
X133602000Y-172146000D03*
D17*
X105537000Y-74465000D03*
D10*
X186499500Y-154051000D03*
D11*
X181419500Y-154051000D03*
X191579500Y-154051000D03*
D10*
X248412000Y-77851000D03*
D11*
X243332000Y-77851000D03*
X253492000Y-77851000D03*
D10*
X276987000Y-173101000D03*
D11*
X271907000Y-173101000D03*
X282067000Y-173101000D03*
D10*
X286512000Y-115951000D03*
D11*
X281432000Y-115951000D03*
X291592000Y-115951000D03*
D10*
X267462000Y-77851000D03*
D11*
X262382000Y-77851000D03*
X272542000Y-77851000D03*
D10*
X72199500Y-77851000D03*
D11*
X67119500Y-77851000D03*
X77279500Y-77851000D03*
D10*
X96012000Y-77851000D03*
D11*
X90932000Y-77851000D03*
X101092000Y-77851000D03*
D10*
X191262000Y-115951000D03*
D11*
X186182000Y-115951000D03*
X196342000Y-115951000D03*
D10*
X153162000Y-77851000D03*
D11*
X148082000Y-77851000D03*
X158242000Y-77851000D03*
D10*
X153162000Y-115951000D03*
D11*
X148082000Y-115951000D03*
X158242000Y-115951000D03*
D10*
X353187000Y-173101000D03*
D11*
X348107000Y-173101000D03*
X358267000Y-173101000D03*
D10*
X334137000Y-173101000D03*
D11*
X329057000Y-173101000D03*
X339217000Y-173101000D03*
D10*
X315087000Y-173101000D03*
D11*
X310007000Y-173101000D03*
X320167000Y-173101000D03*
D10*
X296037000Y-173101000D03*
D11*
X290957000Y-173101000D03*
X301117000Y-173101000D03*
D10*
X257937000Y-173101000D03*
D11*
X252857000Y-173101000D03*
X263017000Y-173101000D03*
D10*
X117443250Y-173101000D03*
D11*
X112363250Y-173101000D03*
X122523250Y-173101000D03*
D10*
X93630750Y-173101000D03*
D11*
X88550750Y-173101000D03*
X98710750Y-173101000D03*
D10*
X69818250Y-173101000D03*
D11*
X64738250Y-173101000D03*
X74898250Y-173101000D03*
D10*
X353187000Y-154051000D03*
D11*
X348107000Y-154051000D03*
X358267000Y-154051000D03*
D10*
X334137000Y-154051000D03*
D11*
X329057000Y-154051000D03*
X339217000Y-154051000D03*
X313023250Y-154051000D03*
X302863250Y-154051000D03*
D10*
X307943250Y-154051000D03*
X281749500Y-154051000D03*
D11*
X276669500Y-154051000D03*
X286829500Y-154051000D03*
D10*
X262699500Y-154051000D03*
D11*
X257619500Y-154051000D03*
X267779500Y-154051000D03*
D10*
X243649500Y-154051000D03*
D11*
X238569500Y-154051000D03*
X248729500Y-154051000D03*
D10*
X224599500Y-154051000D03*
D11*
X219519500Y-154051000D03*
X229679500Y-154051000D03*
D10*
X205549500Y-154051000D03*
D11*
X200469500Y-154051000D03*
X210629500Y-154051000D03*
D10*
X167449500Y-154051000D03*
D11*
X162369500Y-154051000D03*
X172529500Y-154051000D03*
D10*
X148399500Y-154051000D03*
D11*
X143319500Y-154051000D03*
X153479500Y-154051000D03*
D10*
X129349500Y-154051000D03*
D11*
X124269500Y-154051000D03*
X134429500Y-154051000D03*
D10*
X110299500Y-154051000D03*
D11*
X105219500Y-154051000D03*
X115379500Y-154051000D03*
D10*
X353187000Y-135001000D03*
D11*
X348107000Y-135001000D03*
X358267000Y-135001000D03*
D10*
X291274500Y-135001000D03*
D11*
X286194500Y-135001000D03*
X296354500Y-135001000D03*
D10*
X272224500Y-135001000D03*
D11*
X267144500Y-135001000D03*
X277304500Y-135001000D03*
D10*
X253174500Y-135001000D03*
D11*
X248094500Y-135001000D03*
X258254500Y-135001000D03*
D10*
X234124500Y-135001000D03*
D11*
X229044500Y-135001000D03*
X239204500Y-135001000D03*
D10*
X215074500Y-135001000D03*
D11*
X209994500Y-135001000D03*
X220154500Y-135001000D03*
D10*
X196024500Y-135001000D03*
D11*
X190944500Y-135001000D03*
X201104500Y-135001000D03*
D10*
X176974500Y-135001000D03*
D11*
X171894500Y-135001000D03*
X182054500Y-135001000D03*
D10*
X157924500Y-135001000D03*
D11*
X152844500Y-135001000D03*
X163004500Y-135001000D03*
D10*
X138874500Y-135001000D03*
D11*
X133794500Y-135001000D03*
X143954500Y-135001000D03*
D10*
X119824500Y-135001000D03*
D11*
X114744500Y-135001000D03*
X124904500Y-135001000D03*
D10*
X100774500Y-135001000D03*
D11*
X95694500Y-135001000D03*
X105854500Y-135001000D03*
D10*
X353187000Y-115951000D03*
D11*
X348107000Y-115951000D03*
X358267000Y-115951000D03*
D10*
X305562000Y-115951000D03*
D11*
X300482000Y-115951000D03*
X310642000Y-115951000D03*
D10*
X267462000Y-115951000D03*
D11*
X262382000Y-115951000D03*
X272542000Y-115951000D03*
D10*
X248412000Y-115951000D03*
D11*
X243332000Y-115951000D03*
X253492000Y-115951000D03*
D10*
X229362000Y-115951000D03*
D11*
X224282000Y-115951000D03*
X234442000Y-115951000D03*
D10*
X210312000Y-115951000D03*
D11*
X205232000Y-115951000D03*
X215392000Y-115951000D03*
D10*
X172212000Y-115951000D03*
D11*
X167132000Y-115951000D03*
X177292000Y-115951000D03*
D10*
X134112000Y-115951000D03*
D11*
X129032000Y-115951000D03*
X139192000Y-115951000D03*
D10*
X115062000Y-115951000D03*
D11*
X109982000Y-115951000D03*
X120142000Y-115951000D03*
D10*
X96012000Y-115951000D03*
D11*
X90932000Y-115951000D03*
X101092000Y-115951000D03*
D10*
X72199500Y-115951000D03*
D11*
X67119500Y-115951000D03*
X77279500Y-115951000D03*
D10*
X353187000Y-96901000D03*
D11*
X348107000Y-96901000D03*
X358267000Y-96901000D03*
D10*
X296037000Y-96901000D03*
D11*
X290957000Y-96901000D03*
X301117000Y-96901000D03*
D10*
X276987000Y-96901000D03*
D11*
X271907000Y-96901000D03*
X282067000Y-96901000D03*
D10*
X257937000Y-96901000D03*
D11*
X252857000Y-96901000D03*
X263017000Y-96901000D03*
D10*
X238887000Y-96901000D03*
D11*
X233807000Y-96901000D03*
X243967000Y-96901000D03*
D10*
X219837000Y-96901000D03*
D11*
X214757000Y-96901000D03*
X224917000Y-96901000D03*
D10*
X200787000Y-96901000D03*
D11*
X195707000Y-96901000D03*
X205867000Y-96901000D03*
D10*
X181737000Y-96901000D03*
D11*
X176657000Y-96901000D03*
X186817000Y-96901000D03*
D10*
X162687000Y-96901000D03*
D11*
X157607000Y-96901000D03*
X167767000Y-96901000D03*
D10*
X143637000Y-96901000D03*
D11*
X138557000Y-96901000D03*
X148717000Y-96901000D03*
D10*
X124587000Y-96901000D03*
D11*
X119507000Y-96901000D03*
X129667000Y-96901000D03*
D10*
X105537000Y-96901000D03*
D11*
X100457000Y-96901000D03*
X110617000Y-96901000D03*
D10*
X86487000Y-96901000D03*
D11*
X81407000Y-96901000D03*
X91567000Y-96901000D03*
D10*
X67437000Y-96901000D03*
D11*
X62357000Y-96901000D03*
X72517000Y-96901000D03*
D10*
X348424500Y-77851000D03*
D11*
X343344500Y-77851000D03*
X353504500Y-77851000D03*
D10*
X324612000Y-77851000D03*
D11*
X319532000Y-77851000D03*
X329692000Y-77851000D03*
D10*
X305562000Y-77851000D03*
D11*
X300482000Y-77851000D03*
X310642000Y-77851000D03*
D10*
X286512000Y-77851000D03*
D11*
X281432000Y-77851000D03*
X291592000Y-77851000D03*
D10*
X229362000Y-77851000D03*
D11*
X224282000Y-77851000D03*
X234442000Y-77851000D03*
D10*
X210312000Y-77851000D03*
D11*
X205232000Y-77851000D03*
X215392000Y-77851000D03*
D10*
X191262000Y-77851000D03*
D11*
X186182000Y-77851000D03*
X196342000Y-77851000D03*
D10*
X172212000Y-77851000D03*
D11*
X167132000Y-77851000D03*
X177292000Y-77851000D03*
D10*
X134112000Y-77851000D03*
D11*
X129032000Y-77851000D03*
X139192000Y-77851000D03*
D10*
X115062000Y-77851000D03*
D11*
X109982000Y-77851000D03*
X120142000Y-77851000D03*
D18*
X317812000Y-115976000D03*
X186500000Y-135001000D03*
X79812000Y-172976000D03*
X340812000Y-143976000D03*
X246812000Y-173476000D03*
X210312000Y-87476000D03*
X83812000Y-115976000D03*
M02*
